<mxfile host="Electron" modified="2023-10-30T14:20:15.193Z" agent="Mozilla/5.0 (Windows NT 10.0; Win64; x64) AppleWebKit/537.36 (KHTML, like Gecko) draw.io/21.6.5 Chrome/114.0.5735.243 Electron/25.3.1 Safari/537.36" etag="qGCrPKt4uOn601H38ywr" version="21.6.5" type="device">
  <diagram name="第 1 页" id="IbwBOW2PCKwNia5dKPlF">
    <mxGraphModel dx="4871" dy="238" grid="1" gridSize="10" guides="1" tooltips="1" connect="1" arrows="1" fold="1" page="1" pageScale="1" pageWidth="827" pageHeight="1169" math="0" shadow="0">
      <root>
        <mxCell id="0" />
        <mxCell id="1" parent="0" />
        <mxCell id="YR2ZOcdoz560OvKhogQO-1" value="struct kernfs_node {" style="swimlane;fontStyle=0;childLayout=stackLayout;horizontal=1;startSize=30;horizontalStack=0;resizeParent=1;resizeParentMax=0;resizeLast=0;collapsible=1;marginBottom=0;whiteSpace=wrap;html=1;fillColor=#76608a;strokeColor=#432D57;fontColor=#ffffff;" parent="1" vertex="1">
          <mxGeometry x="-1380" y="1630" width="220" height="180" as="geometry" />
        </mxCell>
        <mxCell id="YR2ZOcdoz560OvKhogQO-2" value="struct kernfs_elem_attr&#x9;&#x9;attr;" style="rounded=0;whiteSpace=wrap;html=1;" parent="YR2ZOcdoz560OvKhogQO-1" vertex="1">
          <mxGeometry y="30" width="220" height="30" as="geometry" />
        </mxCell>
        <mxCell id="YR2ZOcdoz560OvKhogQO-3" value="struct kernfs_elem_symlink&#x9;symlink;" style="rounded=0;whiteSpace=wrap;html=1;" parent="YR2ZOcdoz560OvKhogQO-1" vertex="1">
          <mxGeometry y="60" width="220" height="30" as="geometry" />
        </mxCell>
        <mxCell id="YR2ZOcdoz560OvKhogQO-4" value="struct kernfs_elem_dir&#x9;&#x9;dir;" style="rounded=0;whiteSpace=wrap;html=1;" parent="YR2ZOcdoz560OvKhogQO-1" vertex="1">
          <mxGeometry y="90" width="220" height="30" as="geometry" />
        </mxCell>
        <mxCell id="YR2ZOcdoz560OvKhogQO-149" value="struct kernfs_node&#x9;*parent;" style="rounded=0;whiteSpace=wrap;html=1;" parent="YR2ZOcdoz560OvKhogQO-1" vertex="1">
          <mxGeometry y="120" width="220" height="30" as="geometry" />
        </mxCell>
        <mxCell id="_pO7fh_Larfit7YKCgcT-6" value="void&#x9;&#x9;&#x9;*priv;" style="rounded=0;whiteSpace=wrap;html=1;" parent="YR2ZOcdoz560OvKhogQO-1" vertex="1">
          <mxGeometry y="150" width="220" height="30" as="geometry" />
        </mxCell>
        <mxCell id="YR2ZOcdoz560OvKhogQO-5" value="struct kernfs_ops {" style="swimlane;fontStyle=0;childLayout=stackLayout;horizontal=1;startSize=30;horizontalStack=0;resizeParent=1;resizeParentMax=0;resizeLast=0;collapsible=1;marginBottom=0;whiteSpace=wrap;html=1;fillColor=#647687;strokeColor=#314354;fontColor=#ffffff;" parent="1" vertex="1">
          <mxGeometry x="-860" y="1440" width="140" height="60" as="geometry" />
        </mxCell>
        <mxCell id="YR2ZOcdoz560OvKhogQO-6" value="xxx" style="rounded=0;whiteSpace=wrap;html=1;" parent="YR2ZOcdoz560OvKhogQO-5" vertex="1">
          <mxGeometry y="30" width="140" height="30" as="geometry" />
        </mxCell>
        <mxCell id="YR2ZOcdoz560OvKhogQO-7" value="&lt;font color=&quot;#ff0000&quot;&gt;每个&amp;nbsp;kernfs_node&amp;nbsp;都代表着&amp;nbsp;kernfs 的一个节点&lt;/font&gt;" style="text;html=1;strokeColor=none;fillColor=none;align=center;verticalAlign=middle;whiteSpace=wrap;rounded=0;" parent="1" vertex="1">
          <mxGeometry x="-1401" y="1610" width="260" height="20" as="geometry" />
        </mxCell>
        <mxCell id="YR2ZOcdoz560OvKhogQO-8" value="struct kernfs_open_node {" style="swimlane;fontStyle=0;childLayout=stackLayout;horizontal=1;startSize=30;horizontalStack=0;resizeParent=1;resizeParentMax=0;resizeLast=0;collapsible=1;marginBottom=0;whiteSpace=wrap;html=1;fillColor=#e3c800;strokeColor=#B09500;fontColor=#000000;" parent="1" vertex="1">
          <mxGeometry x="-830" y="1550" width="170" height="60" as="geometry" />
        </mxCell>
        <mxCell id="YR2ZOcdoz560OvKhogQO-9" value="struct list_head&#x9;files;" style="rounded=0;whiteSpace=wrap;html=1;" parent="YR2ZOcdoz560OvKhogQO-8" vertex="1">
          <mxGeometry y="30" width="170" height="30" as="geometry" />
        </mxCell>
        <mxCell id="YR2ZOcdoz560OvKhogQO-10" value="struct kernfs_open_file {" style="swimlane;fontStyle=0;childLayout=stackLayout;horizontal=1;startSize=30;horizontalStack=0;resizeParent=1;resizeParentMax=0;resizeLast=0;collapsible=1;marginBottom=0;whiteSpace=wrap;html=1;fillColor=#f0a30a;strokeColor=#BD7000;fontColor=#000000;" parent="1" vertex="1">
          <mxGeometry x="-610" y="1580" width="160" height="120" as="geometry" />
        </mxCell>
        <mxCell id="YR2ZOcdoz560OvKhogQO-11" value="struct list_head&#x9;list;&amp;nbsp;" style="rounded=0;whiteSpace=wrap;html=1;" parent="YR2ZOcdoz560OvKhogQO-10" vertex="1">
          <mxGeometry y="30" width="160" height="30" as="geometry" />
        </mxCell>
        <mxCell id="YR2ZOcdoz560OvKhogQO-12" value="struct kernfs_node&#x9;*kn;" style="rounded=0;whiteSpace=wrap;html=1;" parent="YR2ZOcdoz560OvKhogQO-10" vertex="1">
          <mxGeometry y="60" width="160" height="30" as="geometry" />
        </mxCell>
        <mxCell id="YR2ZOcdoz560OvKhogQO-13" value="struct file&#x9;&#x9;*file;" style="rounded=0;whiteSpace=wrap;html=1;" parent="YR2ZOcdoz560OvKhogQO-10" vertex="1">
          <mxGeometry y="90" width="160" height="30" as="geometry" />
        </mxCell>
        <mxCell id="YR2ZOcdoz560OvKhogQO-14" value="" style="endArrow=classic;html=1;rounded=0;dashed=1;entryX=0.25;entryY=1;entryDx=0;entryDy=0;" parent="YR2ZOcdoz560OvKhogQO-10" target="YR2ZOcdoz560OvKhogQO-24" edge="1">
          <mxGeometry width="50" height="50" relative="1" as="geometry">
            <mxPoint x="110" y="20" as="sourcePoint" />
            <mxPoint x="174.58333333333303" y="144" as="targetPoint" />
          </mxGeometry>
        </mxCell>
        <mxCell id="YR2ZOcdoz560OvKhogQO-15" value="" style="edgeStyle=orthogonalEdgeStyle;rounded=0;orthogonalLoop=1;jettySize=auto;html=1;" parent="1" source="YR2ZOcdoz560OvKhogQO-9" target="YR2ZOcdoz560OvKhogQO-11" edge="1">
          <mxGeometry relative="1" as="geometry" />
        </mxCell>
        <mxCell id="YR2ZOcdoz560OvKhogQO-16" value="struct kernfs_open_file {" style="swimlane;fontStyle=0;childLayout=stackLayout;horizontal=1;startSize=30;horizontalStack=0;resizeParent=1;resizeParentMax=0;resizeLast=0;collapsible=1;marginBottom=0;whiteSpace=wrap;html=1;fillColor=#f0a30a;strokeColor=#BD7000;fontColor=#000000;" parent="1" vertex="1">
          <mxGeometry x="-420" y="1580" width="160" height="120" as="geometry" />
        </mxCell>
        <mxCell id="YR2ZOcdoz560OvKhogQO-17" value="struct list_head&#x9;list;&amp;nbsp;" style="rounded=0;whiteSpace=wrap;html=1;" parent="YR2ZOcdoz560OvKhogQO-16" vertex="1">
          <mxGeometry y="30" width="160" height="30" as="geometry" />
        </mxCell>
        <mxCell id="YR2ZOcdoz560OvKhogQO-18" value="struct kernfs_node&#x9;*kn;" style="rounded=0;whiteSpace=wrap;html=1;" parent="YR2ZOcdoz560OvKhogQO-16" vertex="1">
          <mxGeometry y="60" width="160" height="30" as="geometry" />
        </mxCell>
        <mxCell id="YR2ZOcdoz560OvKhogQO-19" value="struct file&#x9;&#x9;*file;" style="rounded=0;whiteSpace=wrap;html=1;" parent="YR2ZOcdoz560OvKhogQO-16" vertex="1">
          <mxGeometry y="90" width="160" height="30" as="geometry" />
        </mxCell>
        <mxCell id="YR2ZOcdoz560OvKhogQO-20" value="" style="endArrow=classic;html=1;rounded=0;entryX=0.361;entryY=1.046;entryDx=0;entryDy=0;dashed=1;entryPerimeter=0;" parent="YR2ZOcdoz560OvKhogQO-16" target="YR2ZOcdoz560OvKhogQO-24" edge="1">
          <mxGeometry width="50" height="50" relative="1" as="geometry">
            <mxPoint x="67.5" y="20" as="sourcePoint" />
            <mxPoint x="20" y="144" as="targetPoint" />
          </mxGeometry>
        </mxCell>
        <mxCell id="YR2ZOcdoz560OvKhogQO-21" value="" style="edgeStyle=orthogonalEdgeStyle;rounded=0;orthogonalLoop=1;jettySize=auto;html=1;" parent="1" source="YR2ZOcdoz560OvKhogQO-11" target="YR2ZOcdoz560OvKhogQO-17" edge="1">
          <mxGeometry relative="1" as="geometry" />
        </mxCell>
        <mxCell id="YR2ZOcdoz560OvKhogQO-22" value="" style="edgeStyle=orthogonalEdgeStyle;rounded=0;orthogonalLoop=1;jettySize=auto;html=1;" parent="1" source="YR2ZOcdoz560OvKhogQO-17" edge="1">
          <mxGeometry relative="1" as="geometry">
            <mxPoint x="-230" y="1625.0344827586205" as="targetPoint" />
          </mxGeometry>
        </mxCell>
        <mxCell id="YR2ZOcdoz560OvKhogQO-23" value="&lt;font style=&quot;font-size: 20px;&quot;&gt;&lt;b&gt;...&lt;/b&gt;&lt;/font&gt;" style="text;html=1;strokeColor=none;fillColor=none;align=center;verticalAlign=middle;whiteSpace=wrap;rounded=0;" parent="1" vertex="1">
          <mxGeometry x="-230" y="1600" width="30" height="30" as="geometry" />
        </mxCell>
        <mxCell id="YR2ZOcdoz560OvKhogQO-24" value="&lt;font style=&quot;font-size: 9px;&quot; color=&quot;#ff0000&quot;&gt;一个文件可能打开多次，每打开一次文件都对应这么一个结构体，在打开文件时申请其内存，并加入对应链表中，详见：&lt;/font&gt;&lt;font size=&quot;1&quot; color=&quot;#ff0000&quot;&gt;kernfs_fop_open()函数&lt;/font&gt;" style="text;html=1;strokeColor=none;fillColor=none;align=left;verticalAlign=middle;whiteSpace=wrap;rounded=0;" parent="1" vertex="1">
          <mxGeometry x="-420" y="1520" width="245" height="40" as="geometry" />
        </mxCell>
        <mxCell id="YR2ZOcdoz560OvKhogQO-25" value="&lt;font style=&quot;&quot; color=&quot;#ff0000&quot;&gt;&lt;font size=&quot;1&quot;&gt;该文件打开后的组合，即 kernfs_open_file 的组合，第一次打开一个 kernfs_node 时申请内存，详见&amp;nbsp;kernfs_get_open_node() 函数&lt;/font&gt;&lt;br&gt;&lt;/font&gt;" style="text;html=1;strokeColor=none;fillColor=none;align=left;verticalAlign=middle;whiteSpace=wrap;rounded=0;" parent="1" vertex="1">
          <mxGeometry x="-710" y="1490" width="210" height="50" as="geometry" />
        </mxCell>
        <mxCell id="YR2ZOcdoz560OvKhogQO-26" value="" style="endArrow=classic;html=1;rounded=0;entryX=0;entryY=1;entryDx=0;entryDy=0;dashed=1;" parent="1" target="YR2ZOcdoz560OvKhogQO-25" edge="1">
          <mxGeometry width="50" height="50" relative="1" as="geometry">
            <mxPoint x="-750" y="1560" as="sourcePoint" />
            <mxPoint x="-700" y="1510" as="targetPoint" />
          </mxGeometry>
        </mxCell>
        <mxCell id="YR2ZOcdoz560OvKhogQO-27" value="struct kernfs_elem_attr {" style="swimlane;fontStyle=0;childLayout=stackLayout;horizontal=1;startSize=30;horizontalStack=0;resizeParent=1;resizeParentMax=0;resizeLast=0;collapsible=1;marginBottom=0;whiteSpace=wrap;html=1;fillColor=#d5e8d4;strokeColor=#82b366;" parent="1" vertex="1">
          <mxGeometry x="-1060" y="1560" width="160" height="90" as="geometry" />
        </mxCell>
        <mxCell id="YR2ZOcdoz560OvKhogQO-28" value="const struct kernfs_ops&#x9;*ops;" style="rounded=0;whiteSpace=wrap;html=1;" parent="YR2ZOcdoz560OvKhogQO-27" vertex="1">
          <mxGeometry y="30" width="160" height="30" as="geometry" />
        </mxCell>
        <mxCell id="YR2ZOcdoz560OvKhogQO-29" value="struct kernfs_open_node&#x9;*open;" style="rounded=0;whiteSpace=wrap;html=1;" parent="YR2ZOcdoz560OvKhogQO-27" vertex="1">
          <mxGeometry y="60" width="160" height="30" as="geometry" />
        </mxCell>
        <mxCell id="YR2ZOcdoz560OvKhogQO-30" value="" style="edgeStyle=orthogonalEdgeStyle;rounded=0;orthogonalLoop=1;jettySize=auto;html=1;entryX=0;entryY=0.25;entryDx=0;entryDy=0;strokeColor=#1E1E1E;" parent="1" source="YR2ZOcdoz560OvKhogQO-2" target="YR2ZOcdoz560OvKhogQO-27" edge="1">
          <mxGeometry relative="1" as="geometry" />
        </mxCell>
        <mxCell id="YR2ZOcdoz560OvKhogQO-31" value="" style="edgeStyle=orthogonalEdgeStyle;rounded=0;orthogonalLoop=1;jettySize=auto;html=1;entryX=0;entryY=0.25;entryDx=0;entryDy=0;" parent="1" source="YR2ZOcdoz560OvKhogQO-28" target="YR2ZOcdoz560OvKhogQO-5" edge="1">
          <mxGeometry relative="1" as="geometry" />
        </mxCell>
        <mxCell id="YR2ZOcdoz560OvKhogQO-32" value="" style="endArrow=classic;html=1;rounded=0;exitX=1;exitY=0.5;exitDx=0;exitDy=0;entryX=0;entryY=0.25;entryDx=0;entryDy=0;strokeColor=#FF0000;" parent="1" source="YR2ZOcdoz560OvKhogQO-29" target="YR2ZOcdoz560OvKhogQO-8" edge="1">
          <mxGeometry width="50" height="50" relative="1" as="geometry">
            <mxPoint x="-940" y="1650" as="sourcePoint" />
            <mxPoint x="-890" y="1600" as="targetPoint" />
            <Array as="points">
              <mxPoint x="-850" y="1635" />
              <mxPoint x="-850" y="1600" />
              <mxPoint x="-850" y="1565" />
            </Array>
          </mxGeometry>
        </mxCell>
        <mxCell id="YR2ZOcdoz560OvKhogQO-33" value="struct kernfs_elem_symlink {" style="swimlane;fontStyle=0;childLayout=stackLayout;horizontal=1;startSize=30;horizontalStack=0;resizeParent=1;resizeParentMax=0;resizeLast=0;collapsible=1;marginBottom=0;whiteSpace=wrap;html=1;fillColor=#f8cecc;strokeColor=#b85450;" parent="1" vertex="1">
          <mxGeometry x="-1070" y="1690" width="190" height="60" as="geometry" />
        </mxCell>
        <mxCell id="YR2ZOcdoz560OvKhogQO-34" value="struct kernfs_node&#x9;*target_kn;" style="rounded=0;whiteSpace=wrap;html=1;" parent="YR2ZOcdoz560OvKhogQO-33" vertex="1">
          <mxGeometry y="30" width="190" height="30" as="geometry" />
        </mxCell>
        <mxCell id="YR2ZOcdoz560OvKhogQO-35" value="" style="edgeStyle=orthogonalEdgeStyle;rounded=0;orthogonalLoop=1;jettySize=auto;html=1;entryX=0;entryY=0.25;entryDx=0;entryDy=0;strokeColor=#FF0000;" parent="1" source="YR2ZOcdoz560OvKhogQO-3" target="YR2ZOcdoz560OvKhogQO-33" edge="1">
          <mxGeometry relative="1" as="geometry" />
        </mxCell>
        <mxCell id="YR2ZOcdoz560OvKhogQO-36" value="struct kernfs_elem_dir {" style="swimlane;fontStyle=0;childLayout=stackLayout;horizontal=1;startSize=30;horizontalStack=0;resizeParent=1;resizeParentMax=0;resizeLast=0;collapsible=1;marginBottom=0;whiteSpace=wrap;html=1;fillColor=#dae8fc;strokeColor=#6c8ebf;" parent="1" vertex="1">
          <mxGeometry x="-1070" y="1800" width="190" height="90" as="geometry" />
        </mxCell>
        <mxCell id="YR2ZOcdoz560OvKhogQO-37" value="struct kernfs_root&#x9;*root;" style="rounded=0;whiteSpace=wrap;html=1;" parent="YR2ZOcdoz560OvKhogQO-36" vertex="1">
          <mxGeometry y="30" width="190" height="30" as="geometry" />
        </mxCell>
        <mxCell id="YR2ZOcdoz560OvKhogQO-38" value="..." style="rounded=0;whiteSpace=wrap;html=1;" parent="YR2ZOcdoz560OvKhogQO-36" vertex="1">
          <mxGeometry y="60" width="190" height="30" as="geometry" />
        </mxCell>
        <mxCell id="YR2ZOcdoz560OvKhogQO-39" value="" style="edgeStyle=orthogonalEdgeStyle;rounded=0;orthogonalLoop=1;jettySize=auto;html=1;entryX=0;entryY=0.25;entryDx=0;entryDy=0;strokeColor=#0000FF;" parent="1" source="YR2ZOcdoz560OvKhogQO-4" target="YR2ZOcdoz560OvKhogQO-36" edge="1">
          <mxGeometry relative="1" as="geometry">
            <Array as="points">
              <mxPoint x="-1100" y="1735" />
              <mxPoint x="-1100" y="1823" />
            </Array>
          </mxGeometry>
        </mxCell>
        <mxCell id="YR2ZOcdoz560OvKhogQO-40" value="文件" style="text;html=1;strokeColor=none;fillColor=none;align=center;verticalAlign=middle;whiteSpace=wrap;rounded=0;" parent="1" vertex="1">
          <mxGeometry x="-1110" y="1570" width="40" height="10" as="geometry" />
        </mxCell>
        <mxCell id="YR2ZOcdoz560OvKhogQO-41" value="链接" style="text;html=1;strokeColor=none;fillColor=none;align=center;verticalAlign=middle;whiteSpace=wrap;rounded=0;" parent="1" vertex="1">
          <mxGeometry x="-1120" y="1690" width="40" height="10" as="geometry" />
        </mxCell>
        <mxCell id="YR2ZOcdoz560OvKhogQO-42" value="目录" style="text;html=1;strokeColor=none;fillColor=none;align=center;verticalAlign=middle;whiteSpace=wrap;rounded=0;" parent="1" vertex="1">
          <mxGeometry x="-1110" y="1810" width="40" height="10" as="geometry" />
        </mxCell>
        <mxCell id="YR2ZOcdoz560OvKhogQO-43" value="" style="endArrow=classic;html=1;rounded=0;dashed=1;" parent="1" edge="1">
          <mxGeometry width="50" height="50" relative="1" as="geometry">
            <mxPoint x="-1020" y="1580" as="sourcePoint" />
            <mxPoint x="-1090" y="1510" as="targetPoint" />
          </mxGeometry>
        </mxCell>
        <mxCell id="YR2ZOcdoz560OvKhogQO-44" value="" style="endArrow=classic;html=1;rounded=0;dashed=1;" parent="1" edge="1">
          <mxGeometry width="50" height="50" relative="1" as="geometry">
            <mxPoint x="-1020" y="1700" as="sourcePoint" />
            <mxPoint x="-1090" y="1520" as="targetPoint" />
          </mxGeometry>
        </mxCell>
        <mxCell id="YR2ZOcdoz560OvKhogQO-45" value="" style="endArrow=classic;html=1;rounded=0;dashed=1;" parent="1" edge="1">
          <mxGeometry width="50" height="50" relative="1" as="geometry">
            <mxPoint x="-1040" y="1810" as="sourcePoint" />
            <mxPoint x="-1100" y="1520" as="targetPoint" />
          </mxGeometry>
        </mxCell>
        <mxCell id="YR2ZOcdoz560OvKhogQO-46" value="&lt;font color=&quot;#ff0000&quot;&gt;三者选其一存在&lt;/font&gt;" style="text;html=1;strokeColor=none;fillColor=none;align=center;verticalAlign=middle;whiteSpace=wrap;rounded=0;" parent="1" vertex="1">
          <mxGeometry x="-1141" y="1490" width="101" height="20" as="geometry" />
        </mxCell>
        <mxCell id="YR2ZOcdoz560OvKhogQO-47" value="struct seq_file {" style="swimlane;fontStyle=0;childLayout=stackLayout;horizontal=1;startSize=30;horizontalStack=0;resizeParent=1;resizeParentMax=0;resizeLast=0;collapsible=1;marginBottom=0;whiteSpace=wrap;html=1;fillColor=#a0522d;strokeColor=#6D1F00;fontColor=#ffffff;" parent="1" vertex="1">
          <mxGeometry x="-530" y="1360" width="110" height="50" as="geometry" />
        </mxCell>
        <mxCell id="YR2ZOcdoz560OvKhogQO-48" value="void *private;" style="rounded=0;whiteSpace=wrap;html=1;" parent="YR2ZOcdoz560OvKhogQO-47" vertex="1">
          <mxGeometry y="30" width="110" height="20" as="geometry" />
        </mxCell>
        <mxCell id="YR2ZOcdoz560OvKhogQO-49" value="" style="endArrow=classic;html=1;exitX=1;exitY=0.5;exitDx=0;exitDy=0;entryX=0.004;entryY=0.147;entryDx=0;entryDy=0;curved=1;entryPerimeter=0;strokeColor=#0000FF;" parent="1" source="YR2ZOcdoz560OvKhogQO-48" target="YR2ZOcdoz560OvKhogQO-10" edge="1">
          <mxGeometry width="50" height="50" relative="1" as="geometry">
            <mxPoint x="-420" y="1460" as="sourcePoint" />
            <mxPoint x="-370" y="1410" as="targetPoint" />
            <Array as="points">
              <mxPoint x="-400" y="1400" />
              <mxPoint x="-400" y="1490" />
              <mxPoint x="-630" y="1490" />
              <mxPoint x="-630" y="1580" />
              <mxPoint x="-620" y="1595" />
            </Array>
          </mxGeometry>
        </mxCell>
        <mxCell id="YR2ZOcdoz560OvKhogQO-50" value="struct seq_file {" style="swimlane;fontStyle=0;childLayout=stackLayout;horizontal=1;startSize=30;horizontalStack=0;resizeParent=1;resizeParentMax=0;resizeLast=0;collapsible=1;marginBottom=0;whiteSpace=wrap;html=1;fillColor=#a0522d;strokeColor=#6D1F00;fontColor=#ffffff;" parent="1" vertex="1">
          <mxGeometry x="-210" y="1360" width="110" height="50" as="geometry" />
        </mxCell>
        <mxCell id="YR2ZOcdoz560OvKhogQO-51" value="void *private;" style="rounded=0;whiteSpace=wrap;html=1;" parent="YR2ZOcdoz560OvKhogQO-50" vertex="1">
          <mxGeometry y="30" width="110" height="20" as="geometry" />
        </mxCell>
        <mxCell id="YR2ZOcdoz560OvKhogQO-52" value="" style="endArrow=classic;html=1;entryX=-0.006;entryY=0.135;entryDx=0;entryDy=0;strokeColor=#0000FF;curved=1;entryPerimeter=0;" parent="1" target="YR2ZOcdoz560OvKhogQO-16" edge="1">
          <mxGeometry width="50" height="50" relative="1" as="geometry">
            <mxPoint x="-100" y="1400" as="sourcePoint" />
            <mxPoint x="-50" y="1350" as="targetPoint" />
            <Array as="points">
              <mxPoint x="-80" y="1400" />
              <mxPoint x="-80" y="1500" />
              <mxPoint x="-440" y="1500" />
              <mxPoint x="-440" y="1595" />
            </Array>
          </mxGeometry>
        </mxCell>
        <mxCell id="YR2ZOcdoz560OvKhogQO-53" value="" style="endArrow=classic;html=1;rounded=0;exitX=1;exitY=0.5;exitDx=0;exitDy=0;" parent="1" source="YR2ZOcdoz560OvKhogQO-54" edge="1">
          <mxGeometry width="50" height="50" relative="1" as="geometry">
            <mxPoint x="-1309" y="1405" as="sourcePoint" />
            <mxPoint x="-1260" y="1405" as="targetPoint" />
          </mxGeometry>
        </mxCell>
        <mxCell id="YR2ZOcdoz560OvKhogQO-54" value="static struct kernfs_node *&lt;b&gt;&lt;font color=&quot;#ff0000&quot;&gt;kernfs_notify_list&lt;/font&gt;&lt;/b&gt;" style="text;html=1;strokeColor=none;fillColor=none;align=center;verticalAlign=middle;whiteSpace=wrap;rounded=0;" parent="1" vertex="1">
          <mxGeometry x="-1560" y="1390" width="250" height="30" as="geometry" />
        </mxCell>
        <mxCell id="YR2ZOcdoz560OvKhogQO-55" value="&lt;div&gt;struct kernfs_root {&lt;/div&gt;" style="swimlane;fontStyle=0;childLayout=stackLayout;horizontal=1;startSize=30;horizontalStack=0;resizeParent=1;resizeParentMax=0;resizeLast=0;collapsible=1;marginBottom=0;whiteSpace=wrap;html=1;fillColor=#e1d5e7;strokeColor=#9673a6;" parent="1" vertex="1">
          <mxGeometry x="-820" y="1830" width="190" height="60" as="geometry" />
        </mxCell>
        <mxCell id="YR2ZOcdoz560OvKhogQO-56" value="&lt;div&gt;struct list_head&lt;span style=&quot;white-space: pre;&quot;&gt;&amp;nbsp;&amp;nbsp;&amp;nbsp;&amp;nbsp;&lt;/span&gt;supers;&lt;/div&gt;" style="rounded=0;whiteSpace=wrap;html=1;" parent="YR2ZOcdoz560OvKhogQO-55" vertex="1">
          <mxGeometry y="30" width="190" height="30" as="geometry" />
        </mxCell>
        <mxCell id="YR2ZOcdoz560OvKhogQO-57" value="" style="edgeStyle=orthogonalEdgeStyle;rounded=0;orthogonalLoop=1;jettySize=auto;html=1;entryX=0;entryY=0.25;entryDx=0;entryDy=0;" parent="1" source="YR2ZOcdoz560OvKhogQO-37" target="YR2ZOcdoz560OvKhogQO-55" edge="1">
          <mxGeometry relative="1" as="geometry" />
        </mxCell>
        <mxCell id="YR2ZOcdoz560OvKhogQO-58" value="struct file{" style="swimlane;fontStyle=0;childLayout=stackLayout;horizontal=1;startSize=30;horizontalStack=0;resizeParent=1;resizeParentMax=0;resizeLast=0;collapsible=1;marginBottom=0;whiteSpace=wrap;html=1;fillColor=#6d8764;strokeColor=#3A5431;fontColor=#ffffff;" parent="1" vertex="1">
          <mxGeometry x="-1720" y="1610" width="110" height="50" as="geometry" />
        </mxCell>
        <mxCell id="YR2ZOcdoz560OvKhogQO-59" value="..." style="rounded=0;whiteSpace=wrap;html=1;" parent="YR2ZOcdoz560OvKhogQO-58" vertex="1">
          <mxGeometry y="30" width="110" height="20" as="geometry" />
        </mxCell>
        <mxCell id="YR2ZOcdoz560OvKhogQO-60" value="" style="endArrow=classic;html=1;rounded=0;entryX=-0.007;entryY=0.154;entryDx=0;entryDy=0;entryPerimeter=0;exitX=1;exitY=0.5;exitDx=0;exitDy=0;" parent="1" source="YR2ZOcdoz560OvKhogQO-61" target="YR2ZOcdoz560OvKhogQO-1" edge="1">
          <mxGeometry width="50" height="50" relative="1" as="geometry">
            <mxPoint x="-1530" y="1670" as="sourcePoint" />
            <mxPoint x="-1480" y="1620" as="targetPoint" />
          </mxGeometry>
        </mxCell>
        <mxCell id="YR2ZOcdoz560OvKhogQO-61" value="&lt;font style=&quot;font-size: 20px;&quot;&gt;...&lt;/font&gt;" style="text;html=1;strokeColor=none;fillColor=none;align=center;verticalAlign=middle;whiteSpace=wrap;rounded=0;" parent="1" vertex="1">
          <mxGeometry x="-1520" y="1640" width="30" height="20" as="geometry" />
        </mxCell>
        <mxCell id="YR2ZOcdoz560OvKhogQO-62" value="" style="endArrow=classic;html=1;rounded=0;entryX=0;entryY=0.5;entryDx=0;entryDy=0;" parent="1" source="YR2ZOcdoz560OvKhogQO-59" target="YR2ZOcdoz560OvKhogQO-61" edge="1">
          <mxGeometry width="50" height="50" relative="1" as="geometry">
            <mxPoint x="-1320" y="1690" as="sourcePoint" />
            <mxPoint x="-1270" y="1640" as="targetPoint" />
          </mxGeometry>
        </mxCell>
        <mxCell id="YR2ZOcdoz560OvKhogQO-63" value="&lt;font color=&quot;#ff0000&quot;&gt;通过 file-&amp;gt;f_path.dentry-&amp;gt;d_fsdata&lt;br&gt;&amp;nbsp;与&amp;nbsp;kernfs_node 联系起来&lt;/font&gt;" style="text;html=1;strokeColor=none;fillColor=none;align=left;verticalAlign=middle;whiteSpace=wrap;rounded=0;" parent="1" vertex="1">
          <mxGeometry x="-1600" y="1605" width="190" height="30" as="geometry" />
        </mxCell>
        <mxCell id="YR2ZOcdoz560OvKhogQO-64" value="&lt;font color=&quot;#ff0000&quot;&gt;该结构体可由 sysfs 等上层实现&lt;/font&gt;" style="text;html=1;strokeColor=none;fillColor=none;align=left;verticalAlign=middle;whiteSpace=wrap;rounded=0;" parent="1" vertex="1">
          <mxGeometry x="-830" y="1390" width="101" height="30" as="geometry" />
        </mxCell>
        <mxCell id="YR2ZOcdoz560OvKhogQO-65" value="" style="endArrow=classic;html=1;rounded=0;entryX=0.5;entryY=1;entryDx=0;entryDy=0;dashed=1;" parent="1" target="YR2ZOcdoz560OvKhogQO-64" edge="1">
          <mxGeometry width="50" height="50" relative="1" as="geometry">
            <mxPoint x="-810" y="1450" as="sourcePoint" />
            <mxPoint x="-760" y="1400" as="targetPoint" />
          </mxGeometry>
        </mxCell>
        <mxCell id="YR2ZOcdoz560OvKhogQO-66" value="" style="endArrow=classic;html=1;exitX=1;exitY=0.5;exitDx=0;exitDy=0;entryX=0;entryY=0.25;entryDx=0;entryDy=0;curved=1;" parent="1" source="YR2ZOcdoz560OvKhogQO-13" target="YR2ZOcdoz560OvKhogQO-58" edge="1">
          <mxGeometry width="50" height="50" relative="1" as="geometry">
            <mxPoint x="-410" y="1880" as="sourcePoint" />
            <mxPoint x="-360" y="1830" as="targetPoint" />
            <Array as="points">
              <mxPoint x="-430" y="1680" />
              <mxPoint x="-440" y="1920" />
              <mxPoint x="-1750" y="1920" />
              <mxPoint x="-1770" y="1620" />
            </Array>
          </mxGeometry>
        </mxCell>
        <mxCell id="YR2ZOcdoz560OvKhogQO-67" value="" style="endArrow=classic;html=1;exitX=1;exitY=0.5;exitDx=0;exitDy=0;entryX=0;entryY=0.25;entryDx=0;entryDy=0;curved=1;strokeColor=#1E1E1E;" parent="1" source="YR2ZOcdoz560OvKhogQO-19" target="YR2ZOcdoz560OvKhogQO-58" edge="1">
          <mxGeometry width="50" height="50" relative="1" as="geometry">
            <mxPoint x="-250" y="1685" as="sourcePoint" />
            <mxPoint x="-210" y="1970" as="targetPoint" />
            <Array as="points">
              <mxPoint x="-210" y="1685" />
              <mxPoint x="-210" y="1930" />
              <mxPoint x="-1790" y="1930" />
              <mxPoint x="-1790" y="1623" />
            </Array>
          </mxGeometry>
        </mxCell>
        <mxCell id="YR2ZOcdoz560OvKhogQO-150" value="&lt;font color=&quot;#0000ff&quot; style=&quot;font-size: 50px;&quot;&gt;&lt;b&gt;kernfs&amp;amp;sysfs&lt;/b&gt;&lt;/font&gt;" style="text;html=1;strokeColor=none;fillColor=none;align=center;verticalAlign=middle;whiteSpace=wrap;rounded=0;" parent="1" vertex="1">
          <mxGeometry x="-1330" y="1230" width="370" height="70" as="geometry" />
        </mxCell>
        <mxCell id="YR2ZOcdoz560OvKhogQO-151" value="struct kernfs_node {" style="swimlane;fontStyle=0;childLayout=stackLayout;horizontal=1;startSize=30;horizontalStack=0;resizeParent=1;resizeParentMax=0;resizeLast=0;collapsible=1;marginBottom=0;whiteSpace=wrap;html=1;fillColor=#76608a;strokeColor=#432D57;fontColor=#ffffff;" parent="1" vertex="1">
          <mxGeometry x="-1350" y="1930" width="220" height="60" as="geometry" />
        </mxCell>
        <mxCell id="YR2ZOcdoz560OvKhogQO-155" value="void&#x9;&#x9;&#x9;*priv;" style="rounded=0;whiteSpace=wrap;html=1;" parent="YR2ZOcdoz560OvKhogQO-151" vertex="1">
          <mxGeometry y="30" width="220" height="30" as="geometry" />
        </mxCell>
        <mxCell id="YR2ZOcdoz560OvKhogQO-156" value="" style="edgeStyle=orthogonalEdgeStyle;orthogonalLoop=1;jettySize=auto;html=1;entryX=0;entryY=0.25;entryDx=0;entryDy=0;exitX=1;exitY=0.5;exitDx=0;exitDy=0;curved=1;strokeColor=#0000FF;" parent="1" source="YR2ZOcdoz560OvKhogQO-149" target="YR2ZOcdoz560OvKhogQO-151" edge="1">
          <mxGeometry relative="1" as="geometry">
            <Array as="points">
              <mxPoint x="-1110" y="1765" />
              <mxPoint x="-1110" y="1900" />
              <mxPoint x="-1370" y="1900" />
              <mxPoint x="-1370" y="1945" />
            </Array>
          </mxGeometry>
        </mxCell>
        <mxCell id="YR2ZOcdoz560OvKhogQO-157" value="&lt;font color=&quot;#ff0000&quot;&gt;parent 必为目录&lt;/font&gt;" style="text;html=1;strokeColor=none;fillColor=none;align=center;verticalAlign=middle;whiteSpace=wrap;rounded=0;" parent="1" vertex="1">
          <mxGeometry x="-1291" y="1880" width="101" height="20" as="geometry" />
        </mxCell>
        <mxCell id="YR2ZOcdoz560OvKhogQO-161" value="&lt;font color=&quot;#ff0000&quot;&gt;一个 kobject 代表一个目录&lt;/font&gt;" style="text;html=1;strokeColor=none;fillColor=none;align=center;verticalAlign=middle;whiteSpace=wrap;rounded=0;" parent="1" vertex="1">
          <mxGeometry x="-1170" y="2000" width="150" height="20" as="geometry" />
        </mxCell>
        <mxCell id="YR2ZOcdoz560OvKhogQO-162" value="struct kobject {" style="swimlane;fontStyle=0;childLayout=stackLayout;horizontal=1;startSize=30;horizontalStack=0;resizeParent=1;resizeParentMax=0;resizeLast=0;collapsible=1;marginBottom=0;whiteSpace=wrap;html=1;fillColor=#0050ef;strokeColor=#001DBC;fontColor=#ffffff;" parent="1" vertex="1">
          <mxGeometry x="-1680" y="2260" width="140" height="150" as="geometry" />
        </mxCell>
        <mxCell id="YR2ZOcdoz560OvKhogQO-163" value="struct list_head&#x9;entry;" style="rounded=0;whiteSpace=wrap;html=1;" parent="YR2ZOcdoz560OvKhogQO-162" vertex="1">
          <mxGeometry y="30" width="140" height="30" as="geometry" />
        </mxCell>
        <mxCell id="YR2ZOcdoz560OvKhogQO-164" value="struct kset&#x9;&#x9;*kset;" style="rounded=0;whiteSpace=wrap;html=1;" parent="YR2ZOcdoz560OvKhogQO-162" vertex="1">
          <mxGeometry y="60" width="140" height="30" as="geometry" />
        </mxCell>
        <mxCell id="YR2ZOcdoz560OvKhogQO-165" value="struct kobj_type&#x9;*ktype;" style="rounded=0;whiteSpace=wrap;html=1;" parent="YR2ZOcdoz560OvKhogQO-162" vertex="1">
          <mxGeometry y="90" width="140" height="30" as="geometry" />
        </mxCell>
        <mxCell id="YR2ZOcdoz560OvKhogQO-166" value="struct kobject *parent;" style="rounded=0;whiteSpace=wrap;html=1;" parent="YR2ZOcdoz560OvKhogQO-162" vertex="1">
          <mxGeometry y="120" width="140" height="30" as="geometry" />
        </mxCell>
        <mxCell id="YR2ZOcdoz560OvKhogQO-168" value="struct sysfs_ops {" style="swimlane;fontStyle=0;childLayout=stackLayout;horizontal=1;startSize=30;horizontalStack=0;resizeParent=1;resizeParentMax=0;resizeLast=0;collapsible=1;marginBottom=0;whiteSpace=wrap;html=1;fillColor=#ffe6cc;strokeColor=#d79b00;" parent="1" vertex="1">
          <mxGeometry x="-680" y="2130" width="110" height="70" as="geometry" />
        </mxCell>
        <mxCell id="YR2ZOcdoz560OvKhogQO-169" value="show()" style="rounded=0;whiteSpace=wrap;html=1;" parent="YR2ZOcdoz560OvKhogQO-168" vertex="1">
          <mxGeometry y="30" width="110" height="20" as="geometry" />
        </mxCell>
        <mxCell id="YR2ZOcdoz560OvKhogQO-170" value="store()" style="rounded=0;whiteSpace=wrap;html=1;" parent="YR2ZOcdoz560OvKhogQO-168" vertex="1">
          <mxGeometry y="50" width="110" height="20" as="geometry" />
        </mxCell>
        <mxCell id="YR2ZOcdoz560OvKhogQO-171" value="struct kobject {" style="swimlane;fontStyle=0;childLayout=stackLayout;horizontal=1;startSize=30;horizontalStack=0;resizeParent=1;resizeParentMax=0;resizeLast=0;collapsible=1;marginBottom=0;whiteSpace=wrap;html=1;fillColor=#0050ef;strokeColor=#001DBC;fontColor=#ffffff;" parent="1" vertex="1">
          <mxGeometry x="-1490" y="2260" width="140" height="150" as="geometry" />
        </mxCell>
        <mxCell id="YR2ZOcdoz560OvKhogQO-172" value="struct list_head&#x9;entry;" style="rounded=0;whiteSpace=wrap;html=1;" parent="YR2ZOcdoz560OvKhogQO-171" vertex="1">
          <mxGeometry y="30" width="140" height="30" as="geometry" />
        </mxCell>
        <mxCell id="YR2ZOcdoz560OvKhogQO-173" value="struct kset&#x9;&#x9;*kset;" style="rounded=0;whiteSpace=wrap;html=1;" parent="YR2ZOcdoz560OvKhogQO-171" vertex="1">
          <mxGeometry y="60" width="140" height="30" as="geometry" />
        </mxCell>
        <mxCell id="YR2ZOcdoz560OvKhogQO-174" value="struct kobj_type&#x9;*ktype;" style="rounded=0;whiteSpace=wrap;html=1;" parent="YR2ZOcdoz560OvKhogQO-171" vertex="1">
          <mxGeometry y="90" width="140" height="30" as="geometry" />
        </mxCell>
        <mxCell id="YR2ZOcdoz560OvKhogQO-175" value="struct kobject *parent;" style="rounded=0;whiteSpace=wrap;html=1;" parent="YR2ZOcdoz560OvKhogQO-171" vertex="1">
          <mxGeometry y="120" width="140" height="30" as="geometry" />
        </mxCell>
        <mxCell id="YR2ZOcdoz560OvKhogQO-176" value="struct kest {" style="swimlane;fontStyle=0;childLayout=stackLayout;horizontal=1;startSize=30;horizontalStack=0;resizeParent=1;resizeParentMax=0;resizeLast=0;collapsible=1;marginBottom=0;whiteSpace=wrap;html=1;fillColor=#d80073;strokeColor=#A50040;fontColor=#ffffff;" parent="1" vertex="1">
          <mxGeometry x="-1850" y="2080" width="180" height="120" as="geometry" />
        </mxCell>
        <mxCell id="YR2ZOcdoz560OvKhogQO-177" value="const struct kset_uevent_ops *uevent_ops;" style="rounded=0;whiteSpace=wrap;html=1;" parent="YR2ZOcdoz560OvKhogQO-176" vertex="1">
          <mxGeometry y="30" width="180" height="30" as="geometry" />
        </mxCell>
        <mxCell id="YR2ZOcdoz560OvKhogQO-178" value="struct kobject kobj;" style="rounded=0;whiteSpace=wrap;html=1;" parent="YR2ZOcdoz560OvKhogQO-176" vertex="1">
          <mxGeometry y="60" width="180" height="30" as="geometry" />
        </mxCell>
        <mxCell id="YR2ZOcdoz560OvKhogQO-179" value="struct list_head list;" style="rounded=0;whiteSpace=wrap;html=1;" parent="YR2ZOcdoz560OvKhogQO-176" vertex="1">
          <mxGeometry y="90" width="180" height="30" as="geometry" />
        </mxCell>
        <mxCell id="YR2ZOcdoz560OvKhogQO-180" value="" style="endArrow=classic;html=1;strokeColor=#0000FF;entryX=-0.002;entryY=0.203;entryDx=0;entryDy=0;entryPerimeter=0;curved=1;" parent="YR2ZOcdoz560OvKhogQO-176" target="YR2ZOcdoz560OvKhogQO-176" edge="1">
          <mxGeometry width="50" height="50" relative="1" as="geometry">
            <mxPoint x="500" y="255" as="sourcePoint" />
            <mxPoint x="50" y="20" as="targetPoint" />
            <Array as="points">
              <mxPoint x="520" y="245" />
              <mxPoint x="530" y="185" />
              <mxPoint x="490" y="135" />
              <mxPoint x="-30" y="135" />
              <mxPoint x="-30" y="75" />
              <mxPoint x="-30" y="25" />
            </Array>
          </mxGeometry>
        </mxCell>
        <mxCell id="YR2ZOcdoz560OvKhogQO-181" value="" style="endArrow=classic;html=1;strokeColor=#0000FF;entryX=-0.001;entryY=0.17;entryDx=0;entryDy=0;entryPerimeter=0;curved=1;" parent="YR2ZOcdoz560OvKhogQO-176" target="YR2ZOcdoz560OvKhogQO-176" edge="1">
          <mxGeometry width="50" height="50" relative="1" as="geometry">
            <mxPoint x="310" y="255" as="sourcePoint" />
            <mxPoint x="50" y="10" as="targetPoint" />
            <Array as="points">
              <mxPoint x="330" y="255" />
              <mxPoint x="330" y="155" />
              <mxPoint x="-40" y="155" />
              <mxPoint x="-40" y="20" />
            </Array>
          </mxGeometry>
        </mxCell>
        <mxCell id="YR2ZOcdoz560OvKhogQO-182" value="struct kobject {" style="swimlane;fontStyle=0;childLayout=stackLayout;horizontal=1;startSize=30;horizontalStack=0;resizeParent=1;resizeParentMax=0;resizeLast=0;collapsible=1;marginBottom=0;whiteSpace=wrap;html=1;fillColor=#0050ef;strokeColor=#001DBC;fontColor=#ffffff;" parent="1" vertex="1">
          <mxGeometry x="-1870" y="2260" width="140" height="150" as="geometry" />
        </mxCell>
        <mxCell id="YR2ZOcdoz560OvKhogQO-183" value="struct list_head&#x9;entry;" style="rounded=0;whiteSpace=wrap;html=1;" parent="YR2ZOcdoz560OvKhogQO-182" vertex="1">
          <mxGeometry y="30" width="140" height="30" as="geometry" />
        </mxCell>
        <mxCell id="YR2ZOcdoz560OvKhogQO-184" value="struct kset&#x9;&#x9;*kset;" style="rounded=0;whiteSpace=wrap;html=1;" parent="YR2ZOcdoz560OvKhogQO-182" vertex="1">
          <mxGeometry y="60" width="140" height="30" as="geometry" />
        </mxCell>
        <mxCell id="YR2ZOcdoz560OvKhogQO-185" value="struct kobj_type&#x9;*ktype;" style="rounded=0;whiteSpace=wrap;html=1;" parent="YR2ZOcdoz560OvKhogQO-182" vertex="1">
          <mxGeometry y="90" width="140" height="30" as="geometry" />
        </mxCell>
        <mxCell id="YR2ZOcdoz560OvKhogQO-186" value="struct kobject *parent;" style="rounded=0;whiteSpace=wrap;html=1;" parent="YR2ZOcdoz560OvKhogQO-182" vertex="1">
          <mxGeometry y="120" width="140" height="30" as="geometry" />
        </mxCell>
        <mxCell id="YR2ZOcdoz560OvKhogQO-187" value="&lt;font color=&quot;#ff0000&quot;&gt;一个 kobject 代表 sysfs 下的一个目录&lt;/font&gt;" style="text;html=1;strokeColor=none;fillColor=none;align=center;verticalAlign=middle;whiteSpace=wrap;rounded=0;" parent="1" vertex="1">
          <mxGeometry x="-1870" y="2230" width="220" height="30" as="geometry" />
        </mxCell>
        <mxCell id="YR2ZOcdoz560OvKhogQO-188" value="" style="edgeStyle=orthogonalEdgeStyle;orthogonalLoop=1;jettySize=auto;html=1;entryX=0;entryY=0.5;entryDx=0;entryDy=0;curved=1;" parent="1" target="YR2ZOcdoz560OvKhogQO-183" edge="1">
          <mxGeometry relative="1" as="geometry">
            <mxPoint x="-1670" y="2155" as="sourcePoint" />
            <Array as="points">
              <mxPoint x="-1650" y="2155" />
              <mxPoint x="-1650" y="2210" />
              <mxPoint x="-1890" y="2210" />
              <mxPoint x="-1890" y="2305" />
            </Array>
          </mxGeometry>
        </mxCell>
        <mxCell id="YR2ZOcdoz560OvKhogQO-189" value="" style="endArrow=classic;html=1;rounded=0;entryX=0;entryY=0.5;entryDx=0;entryDy=0;exitX=1;exitY=0.5;exitDx=0;exitDy=0;" parent="1" source="YR2ZOcdoz560OvKhogQO-183" target="YR2ZOcdoz560OvKhogQO-163" edge="1">
          <mxGeometry width="50" height="50" relative="1" as="geometry">
            <mxPoint x="-1730" y="2310" as="sourcePoint" />
            <mxPoint x="-1680" y="2260" as="targetPoint" />
          </mxGeometry>
        </mxCell>
        <mxCell id="YR2ZOcdoz560OvKhogQO-190" value="" style="endArrow=classic;html=1;rounded=0;entryX=0;entryY=0.5;entryDx=0;entryDy=0;exitX=1;exitY=0.5;exitDx=0;exitDy=0;" parent="1" source="YR2ZOcdoz560OvKhogQO-163" target="YR2ZOcdoz560OvKhogQO-172" edge="1">
          <mxGeometry width="50" height="50" relative="1" as="geometry">
            <mxPoint x="-1540" y="2300" as="sourcePoint" />
            <mxPoint x="-1490" y="2300" as="targetPoint" />
          </mxGeometry>
        </mxCell>
        <mxCell id="YR2ZOcdoz560OvKhogQO-191" value="" style="endArrow=classic;html=1;rounded=0;exitX=1;exitY=0.5;exitDx=0;exitDy=0;" parent="1" source="YR2ZOcdoz560OvKhogQO-172" edge="1">
          <mxGeometry width="50" height="50" relative="1" as="geometry">
            <mxPoint x="-1350" y="2300" as="sourcePoint" />
            <mxPoint x="-1310" y="2305" as="targetPoint" />
          </mxGeometry>
        </mxCell>
        <mxCell id="YR2ZOcdoz560OvKhogQO-192" value="&lt;font style=&quot;font-size: 20px;&quot;&gt;...&lt;/font&gt;" style="text;html=1;strokeColor=none;fillColor=none;align=center;verticalAlign=middle;whiteSpace=wrap;rounded=0;" parent="1" vertex="1">
          <mxGeometry x="-1310" y="2290" width="30" height="20" as="geometry" />
        </mxCell>
        <mxCell id="YR2ZOcdoz560OvKhogQO-194" value="struct kobj_type {" style="swimlane;fontStyle=0;childLayout=stackLayout;horizontal=1;startSize=30;horizontalStack=0;resizeParent=1;resizeParentMax=0;resizeLast=0;collapsible=1;marginBottom=0;whiteSpace=wrap;html=1;fillColor=#dae8fc;strokeColor=#6c8ebf;" parent="1" vertex="1">
          <mxGeometry x="-920" y="2120" width="200" height="90" as="geometry" />
        </mxCell>
        <mxCell id="YR2ZOcdoz560OvKhogQO-195" value="const struct sysfs_ops *sysfs_ops;" style="rounded=0;whiteSpace=wrap;html=1;" parent="YR2ZOcdoz560OvKhogQO-194" vertex="1">
          <mxGeometry y="30" width="200" height="30" as="geometry" />
        </mxCell>
        <mxCell id="YR2ZOcdoz560OvKhogQO-196" value="struct attribute **default_attrs;" style="rounded=0;whiteSpace=wrap;html=1;" parent="YR2ZOcdoz560OvKhogQO-194" vertex="1">
          <mxGeometry y="60" width="200" height="30" as="geometry" />
        </mxCell>
        <mxCell id="mPgxJHWwVfeoTGfvAqUA-14" value="" style="endArrow=classic;html=1;rounded=0;dashed=1;strokeColor=#FF0000;entryX=0.5;entryY=0;entryDx=0;entryDy=0;" parent="YR2ZOcdoz560OvKhogQO-194" target="mPgxJHWwVfeoTGfvAqUA-15" edge="1">
          <mxGeometry width="50" height="50" relative="1" as="geometry">
            <mxPoint x="70" y="80" as="sourcePoint" />
            <mxPoint x="-90" y="170" as="targetPoint" />
          </mxGeometry>
        </mxCell>
        <mxCell id="YR2ZOcdoz560OvKhogQO-197" value="struct kobject {" style="swimlane;fontStyle=0;childLayout=stackLayout;horizontal=1;startSize=30;horizontalStack=0;resizeParent=1;resizeParentMax=0;resizeLast=0;collapsible=1;marginBottom=0;whiteSpace=wrap;html=1;fillColor=#0050ef;strokeColor=#001DBC;fontColor=#ffffff;" parent="1" vertex="1">
          <mxGeometry x="-1140" y="2030" width="140" height="180" as="geometry" />
        </mxCell>
        <mxCell id="YR2ZOcdoz560OvKhogQO-198" value="struct list_head&#x9;entry;" style="rounded=0;whiteSpace=wrap;html=1;" parent="YR2ZOcdoz560OvKhogQO-197" vertex="1">
          <mxGeometry y="30" width="140" height="30" as="geometry" />
        </mxCell>
        <mxCell id="YR2ZOcdoz560OvKhogQO-199" value="struct kset&#x9;&#x9;*kset;" style="rounded=0;whiteSpace=wrap;html=1;" parent="YR2ZOcdoz560OvKhogQO-197" vertex="1">
          <mxGeometry y="60" width="140" height="30" as="geometry" />
        </mxCell>
        <mxCell id="YR2ZOcdoz560OvKhogQO-200" value="struct kobj_type&#x9;*ktype;" style="rounded=0;whiteSpace=wrap;html=1;" parent="YR2ZOcdoz560OvKhogQO-197" vertex="1">
          <mxGeometry y="90" width="140" height="30" as="geometry" />
        </mxCell>
        <mxCell id="YR2ZOcdoz560OvKhogQO-201" value="struct kobject *parent;" style="rounded=0;whiteSpace=wrap;html=1;" parent="YR2ZOcdoz560OvKhogQO-197" vertex="1">
          <mxGeometry y="120" width="140" height="30" as="geometry" />
        </mxCell>
        <mxCell id="c7BXOT5UVCNvKfTDYitk-1" value="struct kernfs_node&amp;nbsp; *sd;" style="rounded=0;whiteSpace=wrap;html=1;" parent="YR2ZOcdoz560OvKhogQO-197" vertex="1">
          <mxGeometry y="150" width="140" height="30" as="geometry" />
        </mxCell>
        <mxCell id="YR2ZOcdoz560OvKhogQO-202" value="" style="endArrow=classic;html=1;rounded=0;dashed=1;strokeColor=#FF0000;exitX=0.613;exitY=1.033;exitDx=0;exitDy=0;exitPerimeter=0;" parent="1" source="YR2ZOcdoz560OvKhogQO-187" edge="1">
          <mxGeometry width="50" height="50" relative="1" as="geometry">
            <mxPoint x="-1110" y="1770" as="sourcePoint" />
            <mxPoint x="-1110" y="2040" as="targetPoint" />
          </mxGeometry>
        </mxCell>
        <mxCell id="YR2ZOcdoz560OvKhogQO-203" value="" style="endArrow=classic;html=1;rounded=0;dashed=1;strokeColor=#FF0000;exitX=1;exitY=0;exitDx=0;exitDy=0;" parent="1" source="YR2ZOcdoz560OvKhogQO-162" edge="1">
          <mxGeometry width="50" height="50" relative="1" as="geometry">
            <mxPoint x="-910" y="1770" as="sourcePoint" />
            <mxPoint x="-1110" y="2040" as="targetPoint" />
          </mxGeometry>
        </mxCell>
        <mxCell id="YR2ZOcdoz560OvKhogQO-204" value="" style="endArrow=classic;html=1;rounded=0;dashed=1;strokeColor=#FF0000;exitX=1;exitY=0;exitDx=0;exitDy=0;" parent="1" source="YR2ZOcdoz560OvKhogQO-171" edge="1">
          <mxGeometry width="50" height="50" relative="1" as="geometry">
            <mxPoint x="-740" y="1770" as="sourcePoint" />
            <mxPoint x="-1110" y="2040" as="targetPoint" />
          </mxGeometry>
        </mxCell>
        <mxCell id="YR2ZOcdoz560OvKhogQO-205" value="" style="endArrow=classic;html=1;rounded=0;" parent="1" edge="1">
          <mxGeometry width="50" height="50" relative="1" as="geometry">
            <mxPoint x="-1000" y="2140" as="sourcePoint" />
            <mxPoint x="-920" y="2140" as="targetPoint" />
          </mxGeometry>
        </mxCell>
        <mxCell id="YR2ZOcdoz560OvKhogQO-206" value="" style="endArrow=classic;html=1;rounded=0;entryX=0;entryY=0.5;entryDx=0;entryDy=0;" parent="1" target="YR2ZOcdoz560OvKhogQO-209" edge="1">
          <mxGeometry width="50" height="50" relative="1" as="geometry">
            <mxPoint x="-580" y="2170" as="sourcePoint" />
            <mxPoint x="-540" y="2160" as="targetPoint" />
          </mxGeometry>
        </mxCell>
        <mxCell id="YR2ZOcdoz560OvKhogQO-207" value="" style="endArrow=classic;html=1;rounded=0;" parent="1" edge="1">
          <mxGeometry width="50" height="50" relative="1" as="geometry">
            <mxPoint x="-580" y="2190" as="sourcePoint" />
            <mxPoint x="-540" y="2200" as="targetPoint" />
          </mxGeometry>
        </mxCell>
        <mxCell id="YR2ZOcdoz560OvKhogQO-208" value="" style="edgeStyle=orthogonalEdgeStyle;rounded=0;orthogonalLoop=1;jettySize=auto;html=1;entryX=0;entryY=0.25;entryDx=0;entryDy=0;" parent="1" source="YR2ZOcdoz560OvKhogQO-195" target="YR2ZOcdoz560OvKhogQO-168" edge="1">
          <mxGeometry relative="1" as="geometry" />
        </mxCell>
        <mxCell id="YR2ZOcdoz560OvKhogQO-209" value="读取该目录下的文件时先执行该函数" style="text;html=1;strokeColor=none;fillColor=none;align=center;verticalAlign=middle;whiteSpace=wrap;rounded=0;" parent="1" vertex="1">
          <mxGeometry x="-540" y="2160" width="200" height="20" as="geometry" />
        </mxCell>
        <mxCell id="YR2ZOcdoz560OvKhogQO-210" value="写该目录下的文件时先执行该函数" style="text;html=1;strokeColor=none;fillColor=none;align=center;verticalAlign=middle;whiteSpace=wrap;rounded=0;" parent="1" vertex="1">
          <mxGeometry x="-540" y="2190" width="190" height="20" as="geometry" />
        </mxCell>
        <mxCell id="YR2ZOcdoz560OvKhogQO-211" value="struct kobj_attribute {" style="swimlane;fontStyle=0;childLayout=stackLayout;horizontal=1;startSize=30;horizontalStack=0;resizeParent=1;resizeParentMax=0;resizeLast=0;collapsible=1;marginBottom=0;whiteSpace=wrap;html=1;fillColor=#f8cecc;strokeColor=#b85450;" parent="1" vertex="1">
          <mxGeometry x="-670" y="2230" width="120" height="90" as="geometry" />
        </mxCell>
        <mxCell id="YR2ZOcdoz560OvKhogQO-213" value="struct attribute attr;" style="rounded=0;whiteSpace=wrap;html=1;" parent="YR2ZOcdoz560OvKhogQO-211" vertex="1">
          <mxGeometry y="30" width="120" height="20" as="geometry" />
        </mxCell>
        <mxCell id="YR2ZOcdoz560OvKhogQO-214" value="show()" style="rounded=0;whiteSpace=wrap;html=1;" parent="YR2ZOcdoz560OvKhogQO-211" vertex="1">
          <mxGeometry y="50" width="120" height="20" as="geometry" />
        </mxCell>
        <mxCell id="YR2ZOcdoz560OvKhogQO-215" value="store()" style="rounded=0;whiteSpace=wrap;html=1;" parent="YR2ZOcdoz560OvKhogQO-211" vertex="1">
          <mxGeometry y="70" width="120" height="20" as="geometry" />
        </mxCell>
        <mxCell id="YR2ZOcdoz560OvKhogQO-227" value="" style="endArrow=classic;html=1;rounded=0;" parent="1" edge="1">
          <mxGeometry width="50" height="50" relative="1" as="geometry">
            <mxPoint x="-570" y="2290" as="sourcePoint" />
            <mxPoint x="-530" y="2280" as="targetPoint" />
          </mxGeometry>
        </mxCell>
        <mxCell id="YR2ZOcdoz560OvKhogQO-228" value="" style="endArrow=classic;html=1;rounded=0;" parent="1" edge="1">
          <mxGeometry width="50" height="50" relative="1" as="geometry">
            <mxPoint x="-570" y="2310" as="sourcePoint" />
            <mxPoint x="-530" y="2320" as="targetPoint" />
          </mxGeometry>
        </mxCell>
        <mxCell id="YR2ZOcdoz560OvKhogQO-229" value="读取该文件" style="text;html=1;strokeColor=none;fillColor=none;align=center;verticalAlign=middle;whiteSpace=wrap;rounded=0;" parent="1" vertex="1">
          <mxGeometry x="-530" y="2270" width="70" height="20" as="geometry" />
        </mxCell>
        <mxCell id="YR2ZOcdoz560OvKhogQO-230" value="写入该文件" style="text;html=1;strokeColor=none;fillColor=none;align=center;verticalAlign=middle;whiteSpace=wrap;rounded=0;" parent="1" vertex="1">
          <mxGeometry x="-530" y="2310" width="70" height="20" as="geometry" />
        </mxCell>
        <mxCell id="YR2ZOcdoz560OvKhogQO-235" value="" style="curved=1;endArrow=classic;html=1;rounded=0;entryX=0;entryY=0.75;entryDx=0;entryDy=0;strokeColor=#FF0000;dashed=1;" parent="1" target="YR2ZOcdoz560OvKhogQO-214" edge="1">
          <mxGeometry width="50" height="50" relative="1" as="geometry">
            <mxPoint x="-670" y="2170" as="sourcePoint" />
            <mxPoint x="-620" y="2120" as="targetPoint" />
            <Array as="points">
              <mxPoint x="-720" y="2200" />
              <mxPoint x="-760" y="2260" />
              <mxPoint x="-710" y="2280" />
            </Array>
          </mxGeometry>
        </mxCell>
        <mxCell id="YR2ZOcdoz560OvKhogQO-236" value="" style="curved=1;endArrow=classic;html=1;rounded=0;entryX=0;entryY=0.5;entryDx=0;entryDy=0;strokeColor=#0000FF;dashed=1;" parent="1" target="YR2ZOcdoz560OvKhogQO-215" edge="1">
          <mxGeometry width="50" height="50" relative="1" as="geometry">
            <mxPoint x="-665" y="2190" as="sourcePoint" />
            <mxPoint x="-665" y="2315" as="targetPoint" />
            <Array as="points">
              <mxPoint x="-715" y="2220" />
              <mxPoint x="-740" y="2280" />
              <mxPoint x="-705" y="2300" />
            </Array>
          </mxGeometry>
        </mxCell>
        <mxCell id="YR2ZOcdoz560OvKhogQO-237" value="&lt;font color=&quot;#ff0000&quot;&gt;调用&lt;/font&gt;" style="text;html=1;strokeColor=none;fillColor=none;align=center;verticalAlign=middle;whiteSpace=wrap;rounded=0;" parent="1" vertex="1">
          <mxGeometry x="-780" y="2250" width="30" height="20" as="geometry" />
        </mxCell>
        <mxCell id="YR2ZOcdoz560OvKhogQO-238" value="&lt;font color=&quot;#0000ff&quot;&gt;调用&lt;/font&gt;" style="text;html=1;strokeColor=none;fillColor=none;align=center;verticalAlign=middle;whiteSpace=wrap;rounded=0;" parent="1" vertex="1">
          <mxGeometry x="-730" y="2300" width="30" height="20" as="geometry" />
        </mxCell>
        <mxCell id="YR2ZOcdoz560OvKhogQO-239" value="" style="curved=1;endArrow=classic;html=1;rounded=0;entryX=0;entryY=0.5;entryDx=0;entryDy=0;strokeColor=#0000FF;dashed=1;entryPerimeter=0;" parent="1" target="YR2ZOcdoz560OvKhogQO-251" edge="1">
          <mxGeometry width="50" height="50" relative="1" as="geometry">
            <mxPoint x="-725" y="2290" as="sourcePoint" />
            <mxPoint x="-670" y="2415" as="targetPoint" />
            <Array as="points">
              <mxPoint x="-740" y="2360" />
              <mxPoint x="-730" y="2390" />
            </Array>
          </mxGeometry>
        </mxCell>
        <mxCell id="YR2ZOcdoz560OvKhogQO-240" value="" style="curved=1;endArrow=classic;html=1;rounded=0;entryX=0;entryY=0.5;entryDx=0;entryDy=0;strokeColor=#FF0000;dashed=1;" parent="1" target="YR2ZOcdoz560OvKhogQO-250" edge="1">
          <mxGeometry width="50" height="50" relative="1" as="geometry">
            <mxPoint x="-750" y="2257.5" as="sourcePoint" />
            <mxPoint x="-670" y="2390" as="targetPoint" />
            <Array as="points">
              <mxPoint x="-770" y="2288" />
              <mxPoint x="-750" y="2350" />
            </Array>
          </mxGeometry>
        </mxCell>
        <mxCell id="YR2ZOcdoz560OvKhogQO-241" value="" style="endArrow=classic;html=1;rounded=0;dashed=1;" parent="1" edge="1">
          <mxGeometry width="50" height="50" relative="1" as="geometry">
            <mxPoint x="-540" y="2249.23" as="sourcePoint" />
            <mxPoint x="-490" y="2249.23" as="targetPoint" />
          </mxGeometry>
        </mxCell>
        <mxCell id="YR2ZOcdoz560OvKhogQO-242" value="代表sysfs下的一个文件" style="text;html=1;strokeColor=none;fillColor=none;align=center;verticalAlign=middle;whiteSpace=wrap;rounded=0;" parent="1" vertex="1">
          <mxGeometry x="-490" y="2240" width="140" height="20" as="geometry" />
        </mxCell>
        <mxCell id="YR2ZOcdoz560OvKhogQO-243" value="" style="endArrow=classic;html=1;rounded=0;dashed=1;" parent="1" edge="1">
          <mxGeometry width="50" height="50" relative="1" as="geometry">
            <mxPoint x="-996" y="2049.23" as="sourcePoint" />
            <mxPoint x="-946" y="2049.23" as="targetPoint" />
          </mxGeometry>
        </mxCell>
        <mxCell id="YR2ZOcdoz560OvKhogQO-244" value="代表sysfs下的一个目录" style="text;html=1;strokeColor=none;fillColor=none;align=center;verticalAlign=middle;whiteSpace=wrap;rounded=0;" parent="1" vertex="1">
          <mxGeometry x="-946" y="2040" width="140" height="20" as="geometry" />
        </mxCell>
        <mxCell id="YR2ZOcdoz560OvKhogQO-245" value="" style="endArrow=classic;html=1;rounded=0;dashed=1;" parent="1" edge="1">
          <mxGeometry width="50" height="50" relative="1" as="geometry">
            <mxPoint x="-570" y="2139.23" as="sourcePoint" />
            <mxPoint x="-520" y="2139.23" as="targetPoint" />
          </mxGeometry>
        </mxCell>
        <mxCell id="YR2ZOcdoz560OvKhogQO-246" value="访问该目录的读写函数" style="text;html=1;strokeColor=none;fillColor=none;align=center;verticalAlign=middle;whiteSpace=wrap;rounded=0;" parent="1" vertex="1">
          <mxGeometry x="-510" y="2130" width="130" height="20" as="geometry" />
        </mxCell>
        <mxCell id="YR2ZOcdoz560OvKhogQO-248" value="struct device_attribute {" style="swimlane;fontStyle=0;childLayout=stackLayout;horizontal=1;startSize=30;horizontalStack=0;resizeParent=1;resizeParentMax=0;resizeLast=0;collapsible=1;marginBottom=0;whiteSpace=wrap;html=1;fillColor=#fff2cc;strokeColor=#d6b656;" parent="1" vertex="1">
          <mxGeometry x="-670" y="2330" width="150" height="90" as="geometry" />
        </mxCell>
        <mxCell id="YR2ZOcdoz560OvKhogQO-249" value="struct attribute attr;" style="rounded=0;whiteSpace=wrap;html=1;" parent="YR2ZOcdoz560OvKhogQO-248" vertex="1">
          <mxGeometry y="30" width="150" height="20" as="geometry" />
        </mxCell>
        <mxCell id="YR2ZOcdoz560OvKhogQO-250" value="show()" style="rounded=0;whiteSpace=wrap;html=1;" parent="YR2ZOcdoz560OvKhogQO-248" vertex="1">
          <mxGeometry y="50" width="150" height="20" as="geometry" />
        </mxCell>
        <mxCell id="YR2ZOcdoz560OvKhogQO-251" value="store()" style="rounded=0;whiteSpace=wrap;html=1;" parent="YR2ZOcdoz560OvKhogQO-248" vertex="1">
          <mxGeometry y="70" width="150" height="20" as="geometry" />
        </mxCell>
        <mxCell id="YR2ZOcdoz560OvKhogQO-258" value="" style="endArrow=classic;html=1;rounded=0;" parent="1" edge="1">
          <mxGeometry width="50" height="50" relative="1" as="geometry">
            <mxPoint x="-547" y="2390" as="sourcePoint" />
            <mxPoint x="-507" y="2380" as="targetPoint" />
          </mxGeometry>
        </mxCell>
        <mxCell id="YR2ZOcdoz560OvKhogQO-259" value="" style="endArrow=classic;html=1;rounded=0;" parent="1" edge="1">
          <mxGeometry width="50" height="50" relative="1" as="geometry">
            <mxPoint x="-547" y="2410" as="sourcePoint" />
            <mxPoint x="-507" y="2420" as="targetPoint" />
          </mxGeometry>
        </mxCell>
        <mxCell id="YR2ZOcdoz560OvKhogQO-260" value="读取该文件" style="text;html=1;strokeColor=none;fillColor=none;align=center;verticalAlign=middle;whiteSpace=wrap;rounded=0;" parent="1" vertex="1">
          <mxGeometry x="-507" y="2370" width="70" height="20" as="geometry" />
        </mxCell>
        <mxCell id="YR2ZOcdoz560OvKhogQO-261" value="写入该文件" style="text;html=1;strokeColor=none;fillColor=none;align=center;verticalAlign=middle;whiteSpace=wrap;rounded=0;" parent="1" vertex="1">
          <mxGeometry x="-507" y="2410" width="70" height="20" as="geometry" />
        </mxCell>
        <mxCell id="YR2ZOcdoz560OvKhogQO-266" value="" style="endArrow=classic;html=1;rounded=0;dashed=1;" parent="1" edge="1">
          <mxGeometry width="50" height="50" relative="1" as="geometry">
            <mxPoint x="-517" y="2349.23" as="sourcePoint" />
            <mxPoint x="-467" y="2349.23" as="targetPoint" />
          </mxGeometry>
        </mxCell>
        <mxCell id="YR2ZOcdoz560OvKhogQO-267" value="代表sysfs下的一个文件" style="text;html=1;strokeColor=none;fillColor=none;align=center;verticalAlign=middle;whiteSpace=wrap;rounded=0;" parent="1" vertex="1">
          <mxGeometry x="-467" y="2340" width="140" height="20" as="geometry" />
        </mxCell>
        <mxCell id="YR2ZOcdoz560OvKhogQO-383" value="" style="edgeStyle=orthogonalEdgeStyle;orthogonalLoop=1;jettySize=auto;html=1;entryX=0;entryY=0.112;entryDx=0;entryDy=0;entryPerimeter=0;exitX=1;exitY=0.5;exitDx=0;exitDy=0;fillColor=#0050ef;strokeColor=#001DBC;rounded=0;" parent="1" source="YR2ZOcdoz560OvKhogQO-155" target="YR2ZOcdoz560OvKhogQO-197" edge="1">
          <mxGeometry relative="1" as="geometry">
            <Array as="points">
              <mxPoint x="-1111" y="1975" />
              <mxPoint x="-1111" y="2000" />
              <mxPoint x="-1210" y="2000" />
              <mxPoint x="-1210" y="2050" />
            </Array>
          </mxGeometry>
        </mxCell>
        <mxCell id="YR2ZOcdoz560OvKhogQO-384" value="" style="edgeStyle=orthogonalEdgeStyle;orthogonalLoop=1;jettySize=auto;html=1;exitX=1;exitY=0.5;exitDx=0;exitDy=0;fillColor=#0050ef;strokeColor=#0000FF;entryX=-0.001;entryY=0.14;entryDx=0;entryDy=0;entryPerimeter=0;curved=1;" parent="1" source="YR2ZOcdoz560OvKhogQO-184" target="YR2ZOcdoz560OvKhogQO-176" edge="1">
          <mxGeometry relative="1" as="geometry">
            <mxPoint x="-1852" y="2098" as="targetPoint" />
            <Array as="points">
              <mxPoint x="-1710" y="2335" />
              <mxPoint x="-1710" y="2245" />
              <mxPoint x="-1900" y="2245" />
              <mxPoint x="-1900" y="2097" />
              <mxPoint x="-1860" y="2097" />
            </Array>
          </mxGeometry>
        </mxCell>
        <mxCell id="2ZDQvPk4yLrqAt7c5br2-1" value="struct file{" style="swimlane;fontStyle=0;childLayout=stackLayout;horizontal=1;startSize=30;horizontalStack=0;resizeParent=1;resizeParentMax=0;resizeLast=0;collapsible=1;marginBottom=0;whiteSpace=wrap;html=1;fillColor=#6d8764;strokeColor=#3A5431;fontColor=#ffffff;" parent="1" vertex="1">
          <mxGeometry x="-690" y="1340" width="110" height="50" as="geometry" />
        </mxCell>
        <mxCell id="2ZDQvPk4yLrqAt7c5br2-2" value="viod *private_data;" style="rounded=0;whiteSpace=wrap;html=1;" parent="2ZDQvPk4yLrqAt7c5br2-1" vertex="1">
          <mxGeometry y="30" width="110" height="20" as="geometry" />
        </mxCell>
        <mxCell id="2ZDQvPk4yLrqAt7c5br2-3" value="struct file{" style="swimlane;fontStyle=0;childLayout=stackLayout;horizontal=1;startSize=30;horizontalStack=0;resizeParent=1;resizeParentMax=0;resizeLast=0;collapsible=1;marginBottom=0;whiteSpace=wrap;html=1;fillColor=#6d8764;strokeColor=#3A5431;fontColor=#ffffff;" parent="1" vertex="1">
          <mxGeometry x="-355" y="1340" width="110" height="50" as="geometry" />
        </mxCell>
        <mxCell id="2ZDQvPk4yLrqAt7c5br2-4" value="viod *private_data;" style="rounded=0;whiteSpace=wrap;html=1;" parent="2ZDQvPk4yLrqAt7c5br2-3" vertex="1">
          <mxGeometry y="30" width="110" height="20" as="geometry" />
        </mxCell>
        <mxCell id="2ZDQvPk4yLrqAt7c5br2-5" value="" style="edgeStyle=orthogonalEdgeStyle;rounded=0;orthogonalLoop=1;jettySize=auto;html=1;entryX=0;entryY=0.25;entryDx=0;entryDy=0;" parent="1" source="2ZDQvPk4yLrqAt7c5br2-2" target="YR2ZOcdoz560OvKhogQO-47" edge="1">
          <mxGeometry relative="1" as="geometry" />
        </mxCell>
        <mxCell id="2ZDQvPk4yLrqAt7c5br2-6" value="" style="edgeStyle=orthogonalEdgeStyle;rounded=0;orthogonalLoop=1;jettySize=auto;html=1;" parent="1" source="2ZDQvPk4yLrqAt7c5br2-4" edge="1">
          <mxGeometry relative="1" as="geometry">
            <mxPoint x="-208" y="1380" as="targetPoint" />
          </mxGeometry>
        </mxCell>
        <mxCell id="2ZDQvPk4yLrqAt7c5br2-7" value="" style="endArrow=classic;html=1;rounded=0;dashed=1;" parent="1" target="2ZDQvPk4yLrqAt7c5br2-9" edge="1">
          <mxGeometry width="50" height="50" relative="1" as="geometry">
            <mxPoint x="-590" y="1350" as="sourcePoint" />
            <mxPoint x="-540" y="1300" as="targetPoint" />
          </mxGeometry>
        </mxCell>
        <mxCell id="2ZDQvPk4yLrqAt7c5br2-8" value="" style="endArrow=classic;html=1;rounded=0;entryX=0.5;entryY=1;entryDx=0;entryDy=0;dashed=1;" parent="1" target="2ZDQvPk4yLrqAt7c5br2-9" edge="1">
          <mxGeometry width="50" height="50" relative="1" as="geometry">
            <mxPoint x="-330" y="1350" as="sourcePoint" />
            <mxPoint x="-500" y="1300" as="targetPoint" />
          </mxGeometry>
        </mxCell>
        <mxCell id="2ZDQvPk4yLrqAt7c5br2-9" value="&lt;font color=&quot;#ff0000&quot;&gt;这两个是否指向同一个内存呢？毕竟一个kernfs_node只对应一个节点&lt;/font&gt;" style="text;html=1;strokeColor=none;fillColor=none;align=left;verticalAlign=middle;whiteSpace=wrap;rounded=0;" parent="1" vertex="1">
          <mxGeometry x="-610" y="1260" width="220" height="30" as="geometry" />
        </mxCell>
        <mxCell id="2ZDQvPk4yLrqAt7c5br2-66" value="" style="edgeStyle=orthogonalEdgeStyle;orthogonalLoop=1;jettySize=auto;html=1;entryX=-0.002;entryY=0.094;entryDx=0;entryDy=0;entryPerimeter=0;exitX=1;exitY=0.5;exitDx=0;exitDy=0;strokeColor=#B5739D;curved=1;" parent="1" source="YR2ZOcdoz560OvKhogQO-12" target="YR2ZOcdoz560OvKhogQO-1" edge="1">
          <mxGeometry relative="1" as="geometry">
            <Array as="points">
              <mxPoint x="-430" y="1655" />
              <mxPoint x="-430" y="1710" />
              <mxPoint x="-680" y="1710" />
              <mxPoint x="-680" y="1680" />
              <mxPoint x="-1400" y="1680" />
              <mxPoint x="-1400" y="1644" />
            </Array>
          </mxGeometry>
        </mxCell>
        <mxCell id="2ZDQvPk4yLrqAt7c5br2-67" value="" style="endArrow=classic;html=1;exitX=1;exitY=0.5;exitDx=0;exitDy=0;entryX=-0.002;entryY=0.08;entryDx=0;entryDy=0;entryPerimeter=0;curved=1;strokeColor=#B5739D;" parent="1" source="YR2ZOcdoz560OvKhogQO-18" target="YR2ZOcdoz560OvKhogQO-1" edge="1">
          <mxGeometry width="50" height="50" relative="1" as="geometry">
            <mxPoint x="-230" y="1660" as="sourcePoint" />
            <mxPoint x="-180" y="1610" as="targetPoint" />
            <Array as="points">
              <mxPoint x="-230" y="1655" />
              <mxPoint x="-230" y="1720" />
              <mxPoint x="-790" y="1720" />
              <mxPoint x="-790" y="1690" />
              <mxPoint x="-1420" y="1680" />
              <mxPoint x="-1420" y="1642" />
            </Array>
          </mxGeometry>
        </mxCell>
        <mxCell id="c7BXOT5UVCNvKfTDYitk-2" value="" style="endArrow=classic;html=1;exitX=1;exitY=0.5;exitDx=0;exitDy=0;curved=1;strokeColor=#FF0000;" parent="1" source="c7BXOT5UVCNvKfTDYitk-1" edge="1">
          <mxGeometry width="50" height="50" relative="1" as="geometry">
            <mxPoint x="-990" y="2280" as="sourcePoint" />
            <mxPoint x="-1380" y="1640" as="targetPoint" />
            <Array as="points">
              <mxPoint x="-970" y="2195" />
              <mxPoint x="-960" y="2250" />
              <mxPoint x="-1100" y="2260" />
              <mxPoint x="-1420" y="2070" />
              <mxPoint x="-1430" y="1640" />
            </Array>
          </mxGeometry>
        </mxCell>
        <mxCell id="_pO7fh_Larfit7YKCgcT-7" value="struct attribute {" style="swimlane;fontStyle=0;childLayout=stackLayout;horizontal=1;startSize=30;horizontalStack=0;resizeParent=1;resizeParentMax=0;resizeLast=0;collapsible=1;marginBottom=0;whiteSpace=wrap;html=1;fillColor=#1ba1e2;strokeColor=#006EAF;fontColor=#ffffff;" parent="1" vertex="1">
          <mxGeometry x="-960" y="1935" width="110" height="50" as="geometry" />
        </mxCell>
        <mxCell id="_pO7fh_Larfit7YKCgcT-8" value="..." style="rounded=0;whiteSpace=wrap;html=1;" parent="_pO7fh_Larfit7YKCgcT-7" vertex="1">
          <mxGeometry y="30" width="110" height="20" as="geometry" />
        </mxCell>
        <mxCell id="_pO7fh_Larfit7YKCgcT-10" value="struct bin_attribute {" style="swimlane;fontStyle=0;childLayout=stackLayout;horizontal=1;startSize=30;horizontalStack=0;resizeParent=1;resizeParentMax=0;resizeLast=0;collapsible=1;marginBottom=0;whiteSpace=wrap;html=1;fillColor=#d80073;strokeColor=#A50040;fontColor=#ffffff;" parent="1" vertex="1">
          <mxGeometry x="-845" y="1985" width="110" height="50" as="geometry" />
        </mxCell>
        <mxCell id="_pO7fh_Larfit7YKCgcT-11" value="..." style="rounded=0;whiteSpace=wrap;html=1;" parent="_pO7fh_Larfit7YKCgcT-10" vertex="1">
          <mxGeometry y="30" width="110" height="20" as="geometry" />
        </mxCell>
        <mxCell id="_pO7fh_Larfit7YKCgcT-12" value="" style="endArrow=classic;html=1;exitX=1;exitY=0.5;exitDx=0;exitDy=0;entryX=0;entryY=0.25;entryDx=0;entryDy=0;curved=1;strokeColor=#007FFF;" parent="1" source="_pO7fh_Larfit7YKCgcT-6" target="_pO7fh_Larfit7YKCgcT-7" edge="1">
          <mxGeometry width="50" height="50" relative="1" as="geometry">
            <mxPoint x="-1160" y="1870" as="sourcePoint" />
            <mxPoint x="-1110" y="1820" as="targetPoint" />
            <Array as="points">
              <mxPoint x="-1120" y="1910" />
            </Array>
          </mxGeometry>
        </mxCell>
        <mxCell id="_pO7fh_Larfit7YKCgcT-13" value="" style="endArrow=classic;html=1;exitX=1;exitY=0.5;exitDx=0;exitDy=0;entryX=0;entryY=0.25;entryDx=0;entryDy=0;strokeColor=#FF0080;curved=1;" parent="1" source="_pO7fh_Larfit7YKCgcT-6" target="_pO7fh_Larfit7YKCgcT-10" edge="1">
          <mxGeometry width="50" height="50" relative="1" as="geometry">
            <mxPoint x="-1160" y="1800" as="sourcePoint" />
            <mxPoint x="-1110" y="1750" as="targetPoint" />
            <Array as="points">
              <mxPoint x="-1120" y="2020" />
            </Array>
          </mxGeometry>
        </mxCell>
        <mxCell id="_pO7fh_Larfit7YKCgcT-14" value="文本文件" style="text;html=1;strokeColor=none;fillColor=none;align=center;verticalAlign=middle;whiteSpace=wrap;rounded=0;" parent="1" vertex="1">
          <mxGeometry x="-814.5" y="1950" width="54.5" height="15" as="geometry" />
        </mxCell>
        <mxCell id="_pO7fh_Larfit7YKCgcT-15" value="二进制文件" style="text;html=1;strokeColor=none;fillColor=none;align=center;verticalAlign=middle;whiteSpace=wrap;rounded=0;" parent="1" vertex="1">
          <mxGeometry x="-710" y="2000" width="50" height="20" as="geometry" />
        </mxCell>
        <mxCell id="_pO7fh_Larfit7YKCgcT-16" value="" style="endArrow=classic;html=1;rounded=0;entryX=0;entryY=0.5;entryDx=0;entryDy=0;dashed=1;" parent="1" target="_pO7fh_Larfit7YKCgcT-14" edge="1">
          <mxGeometry width="50" height="50" relative="1" as="geometry">
            <mxPoint x="-870" y="1960" as="sourcePoint" />
            <mxPoint x="-820" y="1910" as="targetPoint" />
          </mxGeometry>
        </mxCell>
        <mxCell id="_pO7fh_Larfit7YKCgcT-17" value="" style="endArrow=classic;html=1;rounded=0;entryX=0;entryY=0.5;entryDx=0;entryDy=0;dashed=1;" parent="1" edge="1">
          <mxGeometry width="50" height="50" relative="1" as="geometry">
            <mxPoint x="-766" y="2010" as="sourcePoint" />
            <mxPoint x="-710" y="2008" as="targetPoint" />
          </mxGeometry>
        </mxCell>
        <mxCell id="2ZDQvPk4yLrqAt7c5br2-28" value="" style="rounded=0;whiteSpace=wrap;html=1;fillColor=#dae8fc;strokeColor=#6c8ebf;container=0;" parent="1" vertex="1">
          <mxGeometry x="-20" y="1390" width="690" height="400" as="geometry" />
        </mxCell>
        <mxCell id="2ZDQvPk4yLrqAt7c5br2-76" value="sysfs_kf_read()" style="text;html=1;strokeColor=none;fillColor=none;align=center;verticalAlign=middle;whiteSpace=wrap;rounded=0;container=0;" parent="1" vertex="1">
          <mxGeometry x="240" y="1676" width="100" height="26" as="geometry" />
        </mxCell>
        <mxCell id="2ZDQvPk4yLrqAt7c5br2-77" value="sysfs_kf_bin_read()" style="text;html=1;strokeColor=none;fillColor=none;align=center;verticalAlign=middle;whiteSpace=wrap;rounded=0;container=0;" parent="1" vertex="1">
          <mxGeometry x="370" y="1676" width="116" height="24" as="geometry" />
        </mxCell>
        <mxCell id="2ZDQvPk4yLrqAt7c5br2-10" value="struct file_operations kernfs_file_fops-&amp;gt;read()" style="text;html=1;strokeColor=none;fillColor=none;align=center;verticalAlign=middle;whiteSpace=wrap;rounded=0;container=0;" parent="1" vertex="1">
          <mxGeometry x="410" y="1475" width="250" height="30" as="geometry" />
        </mxCell>
        <mxCell id="2ZDQvPk4yLrqAt7c5br2-11" value="&lt;font color=&quot;#0000ff&quot; style=&quot;font-size: 19px;&quot;&gt;&lt;b&gt;sysfs下文件 read 流程&lt;/b&gt;&lt;/font&gt;" style="text;html=1;strokeColor=none;fillColor=none;align=center;verticalAlign=middle;whiteSpace=wrap;rounded=0;container=0;" parent="1" vertex="1">
          <mxGeometry x="200" y="1415" width="210" height="30" as="geometry" />
        </mxCell>
        <mxCell id="2ZDQvPk4yLrqAt7c5br2-14" value="" style="edgeStyle=orthogonalEdgeStyle;rounded=0;orthogonalLoop=1;jettySize=auto;html=1;dashed=1;" parent="1" source="2ZDQvPk4yLrqAt7c5br2-12" target="2ZDQvPk4yLrqAt7c5br2-10" edge="1">
          <mxGeometry relative="1" as="geometry" />
        </mxCell>
        <mxCell id="2ZDQvPk4yLrqAt7c5br2-12" value="kernfs_fop_readdir()" style="text;html=1;strokeColor=none;fillColor=none;align=center;verticalAlign=middle;whiteSpace=wrap;rounded=0;container=0;" parent="1" vertex="1">
          <mxGeometry x="210" y="1475" width="120" height="30" as="geometry" />
        </mxCell>
        <mxCell id="2ZDQvPk4yLrqAt7c5br2-15" value="" style="endArrow=none;html=1;rounded=0;" parent="1" edge="1">
          <mxGeometry width="50" height="50" relative="1" as="geometry">
            <mxPoint x="190" y="1575" as="sourcePoint" />
            <mxPoint x="350" y="1575" as="targetPoint" />
            <Array as="points">
              <mxPoint x="190" y="1535" />
              <mxPoint x="350" y="1535" />
            </Array>
          </mxGeometry>
        </mxCell>
        <mxCell id="2ZDQvPk4yLrqAt7c5br2-16" value="" style="endArrow=none;html=1;rounded=0;" parent="1" edge="1">
          <mxGeometry width="50" height="50" relative="1" as="geometry">
            <mxPoint x="270" y="1535" as="sourcePoint" />
            <mxPoint x="270" y="1505" as="targetPoint" />
          </mxGeometry>
        </mxCell>
        <mxCell id="2ZDQvPk4yLrqAt7c5br2-17" value="seq_read()" style="text;html=1;strokeColor=none;fillColor=none;align=center;verticalAlign=middle;whiteSpace=wrap;rounded=0;container=0;" parent="1" vertex="1">
          <mxGeometry x="160" y="1575" width="60" height="25" as="geometry" />
        </mxCell>
        <mxCell id="2ZDQvPk4yLrqAt7c5br2-19" value="kernfs_file_direct_read()" style="text;html=1;strokeColor=none;fillColor=none;align=center;verticalAlign=middle;whiteSpace=wrap;rounded=0;container=0;" parent="1" vertex="1">
          <mxGeometry x="270" y="1575" width="150" height="20" as="geometry" />
        </mxCell>
        <mxCell id="2ZDQvPk4yLrqAt7c5br2-20" value="&lt;font color=&quot;#ff0000&quot;&gt;如果&amp;nbsp;kernfs_ops 函数集实现了&amp;nbsp;seq_show() 函数&lt;/font&gt;" style="text;html=1;strokeColor=none;fillColor=none;align=left;verticalAlign=middle;whiteSpace=wrap;rounded=0;container=0;" parent="1" vertex="1">
          <mxGeometry x="30" y="1495" width="160" height="30" as="geometry" />
        </mxCell>
        <mxCell id="2ZDQvPk4yLrqAt7c5br2-21" value="" style="endArrow=classic;html=1;rounded=0;exitX=0.75;exitY=1;exitDx=0;exitDy=0;dashed=1;strokeColor=#FF0000;" parent="1" source="2ZDQvPk4yLrqAt7c5br2-20" edge="1">
          <mxGeometry width="50" height="50" relative="1" as="geometry">
            <mxPoint x="140" y="1545" as="sourcePoint" />
            <mxPoint x="190" y="1545" as="targetPoint" />
          </mxGeometry>
        </mxCell>
        <mxCell id="2ZDQvPk4yLrqAt7c5br2-22" value="" style="endArrow=none;html=1;rounded=0;" parent="1" edge="1">
          <mxGeometry width="50" height="50" relative="1" as="geometry">
            <mxPoint x="350" y="1625" as="sourcePoint" />
            <mxPoint x="350" y="1595" as="targetPoint" />
          </mxGeometry>
        </mxCell>
        <mxCell id="2ZDQvPk4yLrqAt7c5br2-23" value="kernfs_ops-&amp;gt;read()" style="text;html=1;strokeColor=none;fillColor=none;align=center;verticalAlign=middle;whiteSpace=wrap;rounded=0;container=0;" parent="1" vertex="1">
          <mxGeometry x="290" y="1625" width="110" height="20" as="geometry" />
        </mxCell>
        <mxCell id="2ZDQvPk4yLrqAt7c5br2-74" value="" style="endArrow=classic;html=1;rounded=0;exitX=0.5;exitY=1;exitDx=0;exitDy=0;entryX=0.5;entryY=0;entryDx=0;entryDy=0;dashed=1;" parent="1" source="2ZDQvPk4yLrqAt7c5br2-23" target="2ZDQvPk4yLrqAt7c5br2-76" edge="1">
          <mxGeometry width="50" height="50" relative="1" as="geometry">
            <mxPoint x="342.49999999999955" y="1710" as="sourcePoint" />
            <mxPoint x="280" y="1750" as="targetPoint" />
          </mxGeometry>
        </mxCell>
        <mxCell id="2ZDQvPk4yLrqAt7c5br2-75" value="" style="endArrow=classic;html=1;rounded=0;exitX=0.5;exitY=1;exitDx=0;exitDy=0;entryX=0.5;entryY=0;entryDx=0;entryDy=0;dashed=1;" parent="1" source="2ZDQvPk4yLrqAt7c5br2-23" target="2ZDQvPk4yLrqAt7c5br2-77" edge="1">
          <mxGeometry width="50" height="50" relative="1" as="geometry">
            <mxPoint x="342.49999999999955" y="1710" as="sourcePoint" />
            <mxPoint x="400" y="1750" as="targetPoint" />
          </mxGeometry>
        </mxCell>
        <mxCell id="2ZDQvPk4yLrqAt7c5br2-25" value="&lt;font color=&quot;#ff0000&quot;&gt;参见 fs/fsysfs/file.c 获取详细函数&lt;/font&gt;" style="text;html=1;strokeColor=none;fillColor=none;align=left;verticalAlign=middle;whiteSpace=wrap;rounded=0;container=0;" parent="1" vertex="1">
          <mxGeometry x="440" y="1620" width="180" height="30" as="geometry" />
        </mxCell>
        <mxCell id="2ZDQvPk4yLrqAt7c5br2-27" value="" style="edgeStyle=orthogonalEdgeStyle;rounded=0;orthogonalLoop=1;jettySize=auto;html=1;dashed=1;" parent="1" source="2ZDQvPk4yLrqAt7c5br2-23" target="2ZDQvPk4yLrqAt7c5br2-25" edge="1">
          <mxGeometry relative="1" as="geometry" />
        </mxCell>
        <mxCell id="2ZDQvPk4yLrqAt7c5br2-83" value="" style="endArrow=none;html=1;rounded=0;exitX=0.5;exitY=0;exitDx=0;exitDy=0;entryX=0.5;entryY=1;entryDx=0;entryDy=0;" parent="1" source="2ZDQvPk4yLrqAt7c5br2-84" target="2ZDQvPk4yLrqAt7c5br2-76" edge="1">
          <mxGeometry width="50" height="50" relative="1" as="geometry">
            <mxPoint x="280" y="1750" as="sourcePoint" />
            <mxPoint x="280" y="1700" as="targetPoint" />
          </mxGeometry>
        </mxCell>
        <mxCell id="2ZDQvPk4yLrqAt7c5br2-84" value="sysfs_ops-&amp;gt;show()" style="text;html=1;strokeColor=none;fillColor=none;align=center;verticalAlign=middle;whiteSpace=wrap;rounded=0;container=0;" parent="1" vertex="1">
          <mxGeometry x="235" y="1724" width="110" height="26" as="geometry" />
        </mxCell>
        <mxCell id="2ZDQvPk4yLrqAt7c5br2-90" value="" style="endArrow=none;html=1;rounded=0;dashed=1;strokeColor=#FF0000;startArrow=classic;startFill=1;" parent="1" edge="1">
          <mxGeometry width="50" height="50" relative="1" as="geometry">
            <mxPoint x="189.43" y="1630" as="sourcePoint" />
            <mxPoint x="189.43" y="1600" as="targetPoint" />
          </mxGeometry>
        </mxCell>
        <mxCell id="2ZDQvPk4yLrqAt7c5br2-92" value="..." style="text;html=1;strokeColor=none;fillColor=none;align=center;verticalAlign=middle;whiteSpace=wrap;rounded=0;container=0;" parent="1" vertex="1">
          <mxGeometry x="170" y="1630" width="40" height="20" as="geometry" />
        </mxCell>
        <mxCell id="_pO7fh_Larfit7YKCgcT-1" value="&lt;font color=&quot;#ff0000&quot;&gt;读二进制文件&lt;/font&gt;" style="text;html=1;strokeColor=none;fillColor=none;align=center;verticalAlign=middle;whiteSpace=wrap;rounded=0;container=0;" parent="1" vertex="1">
          <mxGeometry x="420" y="1660" width="80" height="15" as="geometry" />
        </mxCell>
        <mxCell id="_pO7fh_Larfit7YKCgcT-2" value="&lt;font color=&quot;#ff0000&quot;&gt;读文本文件&lt;/font&gt;" style="text;html=1;strokeColor=none;fillColor=none;align=center;verticalAlign=middle;whiteSpace=wrap;rounded=0;container=0;" parent="1" vertex="1">
          <mxGeometry x="220" y="1661" width="70" height="15" as="geometry" />
        </mxCell>
        <mxCell id="_pO7fh_Larfit7YKCgcT-19" value="" style="endArrow=none;html=1;rounded=0;" parent="1" edge="1">
          <mxGeometry width="50" height="50" relative="1" as="geometry">
            <mxPoint x="430" y="1722" as="sourcePoint" />
            <mxPoint x="430" y="1702" as="targetPoint" />
          </mxGeometry>
        </mxCell>
        <mxCell id="_pO7fh_Larfit7YKCgcT-20" value="bin_attribute-&amp;gt;read()" style="text;html=1;strokeColor=none;fillColor=none;align=center;verticalAlign=middle;whiteSpace=wrap;rounded=0;" parent="1" vertex="1">
          <mxGeometry x="370" y="1724" width="120" height="26" as="geometry" />
        </mxCell>
        <mxCell id="Hf3Kc-xkEjDQcEDfJYeH-1" value="&lt;font color=&quot;#ff0000&quot;&gt;这是目录的show()函数，驱动要在内部实现对文件读操作的钩子函数，具体怎么实现，这取决于驱动&lt;/font&gt;" style="text;html=1;strokeColor=none;fillColor=none;align=left;verticalAlign=middle;whiteSpace=wrap;rounded=0;container=0;" parent="1" vertex="1">
          <mxGeometry y="1700" width="175" height="70" as="geometry" />
        </mxCell>
        <mxCell id="Hf3Kc-xkEjDQcEDfJYeH-3" value="" style="endArrow=classic;html=1;rounded=0;entryX=1;entryY=0.5;entryDx=0;entryDy=0;exitX=0;exitY=0.5;exitDx=0;exitDy=0;dashed=1;strokeColor=#FF0000;" parent="1" source="2ZDQvPk4yLrqAt7c5br2-84" target="Hf3Kc-xkEjDQcEDfJYeH-1" edge="1">
          <mxGeometry width="50" height="50" relative="1" as="geometry">
            <mxPoint x="290" y="1770" as="sourcePoint" />
            <mxPoint x="340" y="1720" as="targetPoint" />
          </mxGeometry>
        </mxCell>
        <mxCell id="2ZDQvPk4yLrqAt7c5br2-64" value="" style="rounded=0;whiteSpace=wrap;html=1;fillColor=#dae8fc;strokeColor=#6c8ebf;container=0;" parent="1" vertex="1">
          <mxGeometry x="710" y="1415" width="740" height="315" as="geometry" />
        </mxCell>
        <mxCell id="2ZDQvPk4yLrqAt7c5br2-86" value="" style="endArrow=none;html=1;rounded=0;exitX=0.5;exitY=0;exitDx=0;exitDy=0;entryX=0.5;entryY=1;entryDx=0;entryDy=0;" parent="1" source="2ZDQvPk4yLrqAt7c5br2-87" edge="1">
          <mxGeometry width="50" height="50" relative="1" as="geometry">
            <mxPoint x="962" y="1686" as="sourcePoint" />
            <mxPoint x="972" y="1638" as="targetPoint" />
          </mxGeometry>
        </mxCell>
        <mxCell id="2ZDQvPk4yLrqAt7c5br2-87" value="sysfs_ops-&amp;gt;store()" style="text;html=1;strokeColor=none;fillColor=none;align=center;verticalAlign=middle;whiteSpace=wrap;rounded=0;" parent="1" vertex="1">
          <mxGeometry x="917" y="1660" width="110" height="30" as="geometry" />
        </mxCell>
        <mxCell id="2ZDQvPk4yLrqAt7c5br2-50" value="struct file_operations kernfs_file_fops-&amp;gt;write()" style="text;html=1;strokeColor=none;fillColor=none;align=center;verticalAlign=middle;whiteSpace=wrap;rounded=0;container=0;" parent="1" vertex="1">
          <mxGeometry x="1170" y="1500" width="250" height="30" as="geometry" />
        </mxCell>
        <mxCell id="2ZDQvPk4yLrqAt7c5br2-51" value="&lt;font color=&quot;#0000ff&quot; style=&quot;font-size: 19px;&quot;&gt;&lt;b&gt;sysfs下文件 write 流程&lt;/b&gt;&lt;/font&gt;" style="text;html=1;strokeColor=none;fillColor=none;align=center;verticalAlign=middle;whiteSpace=wrap;rounded=0;container=0;" parent="1" vertex="1">
          <mxGeometry x="960" y="1440" width="210" height="30" as="geometry" />
        </mxCell>
        <mxCell id="2ZDQvPk4yLrqAt7c5br2-52" value="" style="edgeStyle=orthogonalEdgeStyle;rounded=0;orthogonalLoop=1;jettySize=auto;html=1;dashed=1;" parent="1" source="2ZDQvPk4yLrqAt7c5br2-53" target="2ZDQvPk4yLrqAt7c5br2-50" edge="1">
          <mxGeometry relative="1" as="geometry" />
        </mxCell>
        <mxCell id="2ZDQvPk4yLrqAt7c5br2-53" value="kernfs_fop_write()" style="text;html=1;strokeColor=none;fillColor=none;align=center;verticalAlign=middle;whiteSpace=wrap;rounded=0;container=0;" parent="1" vertex="1">
          <mxGeometry x="970" y="1500" width="120" height="30" as="geometry" />
        </mxCell>
        <mxCell id="2ZDQvPk4yLrqAt7c5br2-55" value="" style="endArrow=none;html=1;rounded=0;" parent="1" edge="1">
          <mxGeometry width="50" height="50" relative="1" as="geometry">
            <mxPoint x="1030" y="1560" as="sourcePoint" />
            <mxPoint x="1030" y="1530" as="targetPoint" />
          </mxGeometry>
        </mxCell>
        <mxCell id="2ZDQvPk4yLrqAt7c5br2-61" value="kernfs_ops-&amp;gt;write()" style="text;html=1;strokeColor=none;fillColor=none;align=center;verticalAlign=middle;whiteSpace=wrap;rounded=0;container=0;" parent="1" vertex="1">
          <mxGeometry x="980" y="1560" width="110" height="20" as="geometry" />
        </mxCell>
        <mxCell id="2ZDQvPk4yLrqAt7c5br2-62" value="&lt;font color=&quot;#ff0000&quot;&gt;参见 fs/fsysfs/file.c 获取详细函数&lt;/font&gt;" style="text;html=1;strokeColor=none;fillColor=none;align=left;verticalAlign=middle;whiteSpace=wrap;rounded=0;container=0;" parent="1" vertex="1">
          <mxGeometry x="1130" y="1555" width="180" height="30" as="geometry" />
        </mxCell>
        <mxCell id="2ZDQvPk4yLrqAt7c5br2-63" value="" style="edgeStyle=orthogonalEdgeStyle;rounded=0;orthogonalLoop=1;jettySize=auto;html=1;dashed=1;" parent="1" source="2ZDQvPk4yLrqAt7c5br2-61" target="2ZDQvPk4yLrqAt7c5br2-62" edge="1">
          <mxGeometry relative="1" as="geometry" />
        </mxCell>
        <mxCell id="2ZDQvPk4yLrqAt7c5br2-78" value="" style="endArrow=classic;html=1;rounded=0;exitX=0.5;exitY=1;exitDx=0;exitDy=0;entryX=0.5;entryY=0;entryDx=0;entryDy=0;dashed=1;" parent="1" target="2ZDQvPk4yLrqAt7c5br2-80" edge="1">
          <mxGeometry width="50" height="50" relative="1" as="geometry">
            <mxPoint x="1029" y="1585" as="sourcePoint" />
            <mxPoint x="964" y="1690" as="targetPoint" />
          </mxGeometry>
        </mxCell>
        <mxCell id="2ZDQvPk4yLrqAt7c5br2-79" value="" style="endArrow=classic;html=1;rounded=0;exitX=0.5;exitY=1;exitDx=0;exitDy=0;entryX=0.5;entryY=0;entryDx=0;entryDy=0;dashed=1;" parent="1" target="2ZDQvPk4yLrqAt7c5br2-81" edge="1">
          <mxGeometry width="50" height="50" relative="1" as="geometry">
            <mxPoint x="1029" y="1585" as="sourcePoint" />
            <mxPoint x="1084" y="1690" as="targetPoint" />
          </mxGeometry>
        </mxCell>
        <mxCell id="2ZDQvPk4yLrqAt7c5br2-80" value="sysfs_kf_write()" style="text;html=1;strokeColor=none;fillColor=none;align=center;verticalAlign=middle;whiteSpace=wrap;rounded=0;container=0;" parent="1" vertex="1">
          <mxGeometry x="924" y="1616" width="100" height="26" as="geometry" />
        </mxCell>
        <mxCell id="2ZDQvPk4yLrqAt7c5br2-81" value="sysfs_kf_bin_write()" style="text;html=1;strokeColor=none;fillColor=none;align=center;verticalAlign=middle;whiteSpace=wrap;rounded=0;container=0;" parent="1" vertex="1">
          <mxGeometry x="1054" y="1616" width="116" height="24" as="geometry" />
        </mxCell>
        <mxCell id="_pO7fh_Larfit7YKCgcT-3" value="&lt;font color=&quot;#ff0000&quot;&gt;写文本文件&lt;/font&gt;" style="text;html=1;strokeColor=none;fillColor=none;align=center;verticalAlign=middle;whiteSpace=wrap;rounded=0;" parent="1" vertex="1">
          <mxGeometry x="917" y="1590" width="70" height="15" as="geometry" />
        </mxCell>
        <mxCell id="_pO7fh_Larfit7YKCgcT-4" value="&lt;font color=&quot;#ff0000&quot;&gt;写二进制文件&lt;/font&gt;" style="text;html=1;strokeColor=none;fillColor=none;align=center;verticalAlign=middle;whiteSpace=wrap;rounded=0;" parent="1" vertex="1">
          <mxGeometry x="1110" y="1590" width="80" height="15" as="geometry" />
        </mxCell>
        <mxCell id="Hf3Kc-xkEjDQcEDfJYeH-5" value="" style="endArrow=none;html=1;rounded=0;exitX=0.5;exitY=0;exitDx=0;exitDy=0;" parent="1" source="Hf3Kc-xkEjDQcEDfJYeH-6" edge="1">
          <mxGeometry width="50" height="50" relative="1" as="geometry">
            <mxPoint x="1100" y="1657.5" as="sourcePoint" />
            <mxPoint x="1100" y="1637.5" as="targetPoint" />
          </mxGeometry>
        </mxCell>
        <mxCell id="Hf3Kc-xkEjDQcEDfJYeH-6" value="bin_attribute-&amp;gt;write()" style="text;html=1;strokeColor=none;fillColor=none;align=center;verticalAlign=middle;whiteSpace=wrap;rounded=0;" parent="1" vertex="1">
          <mxGeometry x="1040" y="1664" width="120" height="26" as="geometry" />
        </mxCell>
        <mxCell id="Hf3Kc-xkEjDQcEDfJYeH-9" value="&lt;font color=&quot;#ff0000&quot;&gt;这是目录的store()函数，驱动要在内部实现对文件写操作的钩子函数，具体怎么实现，这取决于驱动&lt;/font&gt;" style="text;html=1;strokeColor=none;fillColor=none;align=left;verticalAlign=middle;whiteSpace=wrap;rounded=0;container=0;" parent="1" vertex="1">
          <mxGeometry x="720" y="1640" width="160" height="70" as="geometry" />
        </mxCell>
        <mxCell id="Hf3Kc-xkEjDQcEDfJYeH-10" value="" style="endArrow=classic;html=1;rounded=0;exitX=0;exitY=0.5;exitDx=0;exitDy=0;dashed=1;strokeColor=#FF0000;entryX=1;entryY=0.5;entryDx=0;entryDy=0;" parent="1" source="2ZDQvPk4yLrqAt7c5br2-87" target="Hf3Kc-xkEjDQcEDfJYeH-9" edge="1">
          <mxGeometry width="50" height="50" relative="1" as="geometry">
            <mxPoint x="917" y="1677" as="sourcePoint" />
            <mxPoint x="860" y="1675" as="targetPoint" />
          </mxGeometry>
        </mxCell>
        <mxCell id="Hf3Kc-xkEjDQcEDfJYeH-12" value="" style="endArrow=none;html=1;rounded=0;strokeColor=#FF0000;startArrow=classic;startFill=1;dashed=1;" parent="1" edge="1">
          <mxGeometry width="50" height="50" relative="1" as="geometry">
            <mxPoint x="289.63" y="1777.5" as="sourcePoint" />
            <mxPoint x="289.63" y="1747.5" as="targetPoint" />
          </mxGeometry>
        </mxCell>
        <mxCell id="Hf3Kc-xkEjDQcEDfJYeH-13" value="" style="endArrow=none;html=1;rounded=0;strokeColor=#FF0000;dashed=1;startArrow=classic;startFill=1;" parent="1" edge="1">
          <mxGeometry width="50" height="50" relative="1" as="geometry">
            <mxPoint x="971.81" y="1715" as="sourcePoint" />
            <mxPoint x="971.81" y="1685" as="targetPoint" />
          </mxGeometry>
        </mxCell>
        <mxCell id="Hf3Kc-xkEjDQcEDfJYeH-15" value="struct driver_attribute {" style="swimlane;fontStyle=0;childLayout=stackLayout;horizontal=1;startSize=30;horizontalStack=0;resizeParent=1;resizeParentMax=0;resizeLast=0;collapsible=1;marginBottom=0;whiteSpace=wrap;html=1;fillColor=#e1d5e7;strokeColor=#9673a6;" parent="1" vertex="1">
          <mxGeometry x="-670" y="2430" width="150" height="90" as="geometry" />
        </mxCell>
        <mxCell id="Hf3Kc-xkEjDQcEDfJYeH-16" value="struct attribute attr;" style="rounded=0;whiteSpace=wrap;html=1;" parent="Hf3Kc-xkEjDQcEDfJYeH-15" vertex="1">
          <mxGeometry y="30" width="150" height="20" as="geometry" />
        </mxCell>
        <mxCell id="Hf3Kc-xkEjDQcEDfJYeH-17" value="show()" style="rounded=0;whiteSpace=wrap;html=1;" parent="Hf3Kc-xkEjDQcEDfJYeH-15" vertex="1">
          <mxGeometry y="50" width="150" height="20" as="geometry" />
        </mxCell>
        <mxCell id="Hf3Kc-xkEjDQcEDfJYeH-18" value="store()" style="rounded=0;whiteSpace=wrap;html=1;" parent="Hf3Kc-xkEjDQcEDfJYeH-15" vertex="1">
          <mxGeometry y="70" width="150" height="20" as="geometry" />
        </mxCell>
        <mxCell id="Hf3Kc-xkEjDQcEDfJYeH-19" value="" style="endArrow=classic;html=1;rounded=0;" parent="1" edge="1">
          <mxGeometry width="50" height="50" relative="1" as="geometry">
            <mxPoint x="-547" y="2490" as="sourcePoint" />
            <mxPoint x="-507" y="2480" as="targetPoint" />
          </mxGeometry>
        </mxCell>
        <mxCell id="Hf3Kc-xkEjDQcEDfJYeH-20" value="" style="endArrow=classic;html=1;rounded=0;" parent="1" edge="1">
          <mxGeometry width="50" height="50" relative="1" as="geometry">
            <mxPoint x="-547" y="2510" as="sourcePoint" />
            <mxPoint x="-507" y="2520" as="targetPoint" />
          </mxGeometry>
        </mxCell>
        <mxCell id="Hf3Kc-xkEjDQcEDfJYeH-21" value="读取该文件" style="text;html=1;strokeColor=none;fillColor=none;align=center;verticalAlign=middle;whiteSpace=wrap;rounded=0;" parent="1" vertex="1">
          <mxGeometry x="-507" y="2470" width="70" height="20" as="geometry" />
        </mxCell>
        <mxCell id="Hf3Kc-xkEjDQcEDfJYeH-22" value="写入该文件" style="text;html=1;strokeColor=none;fillColor=none;align=center;verticalAlign=middle;whiteSpace=wrap;rounded=0;" parent="1" vertex="1">
          <mxGeometry x="-507" y="2510" width="70" height="20" as="geometry" />
        </mxCell>
        <mxCell id="Hf3Kc-xkEjDQcEDfJYeH-23" value="" style="endArrow=classic;html=1;rounded=0;dashed=1;" parent="1" edge="1">
          <mxGeometry width="50" height="50" relative="1" as="geometry">
            <mxPoint x="-517" y="2449.23" as="sourcePoint" />
            <mxPoint x="-467" y="2449.23" as="targetPoint" />
          </mxGeometry>
        </mxCell>
        <mxCell id="Hf3Kc-xkEjDQcEDfJYeH-24" value="代表sysfs下的一个文件" style="text;html=1;strokeColor=none;fillColor=none;align=center;verticalAlign=middle;whiteSpace=wrap;rounded=0;" parent="1" vertex="1">
          <mxGeometry x="-467" y="2440" width="140" height="20" as="geometry" />
        </mxCell>
        <mxCell id="Hf3Kc-xkEjDQcEDfJYeH-25" value="" style="curved=1;endArrow=classic;html=1;rounded=0;entryX=0;entryY=0.5;entryDx=0;entryDy=0;strokeColor=#0000FF;dashed=1;entryPerimeter=0;" parent="1" edge="1">
          <mxGeometry width="50" height="50" relative="1" as="geometry">
            <mxPoint x="-725" y="2390" as="sourcePoint" />
            <mxPoint x="-670" y="2510" as="targetPoint" />
            <Array as="points">
              <mxPoint x="-740" y="2460" />
              <mxPoint x="-730" y="2490" />
            </Array>
          </mxGeometry>
        </mxCell>
        <mxCell id="Hf3Kc-xkEjDQcEDfJYeH-27" value="" style="curved=1;endArrow=classic;html=1;rounded=0;entryX=0;entryY=0.5;entryDx=0;entryDy=0;strokeColor=#FF0000;dashed=1;" parent="1" edge="1">
          <mxGeometry width="50" height="50" relative="1" as="geometry">
            <mxPoint x="-750" y="2340" as="sourcePoint" />
            <mxPoint x="-670" y="2490" as="targetPoint" />
            <Array as="points">
              <mxPoint x="-770" y="2388" />
              <mxPoint x="-750" y="2450" />
            </Array>
          </mxGeometry>
        </mxCell>
        <mxCell id="71enjnyxu9cjQM3RV5yC-2" value="struct attribute_group {" style="swimlane;fontStyle=0;childLayout=stackLayout;horizontal=1;startSize=30;horizontalStack=0;resizeParent=1;resizeParentMax=0;resizeLast=0;collapsible=1;marginBottom=0;whiteSpace=wrap;html=1;fillColor=#6a00ff;strokeColor=#3700CC;fontColor=#ffffff;" parent="1" vertex="1">
          <mxGeometry x="-230" y="2000" width="190" height="70" as="geometry" />
        </mxCell>
        <mxCell id="71enjnyxu9cjQM3RV5yC-3" value="struct attribute&amp;nbsp; &amp;nbsp; **attrs;" style="rounded=0;whiteSpace=wrap;html=1;" parent="71enjnyxu9cjQM3RV5yC-2" vertex="1">
          <mxGeometry y="30" width="190" height="20" as="geometry" />
        </mxCell>
        <mxCell id="71enjnyxu9cjQM3RV5yC-4" value="struct bin_attribute&amp;nbsp; &amp;nbsp; **bin_attrs;" style="rounded=0;whiteSpace=wrap;html=1;" parent="71enjnyxu9cjQM3RV5yC-2" vertex="1">
          <mxGeometry y="50" width="190" height="20" as="geometry" />
        </mxCell>
        <mxCell id="71enjnyxu9cjQM3RV5yC-6" value="" style="endArrow=classic;html=1;rounded=0;dashed=1;" parent="71enjnyxu9cjQM3RV5yC-2" edge="1">
          <mxGeometry width="50" height="50" relative="1" as="geometry">
            <mxPoint x="10" y="60" as="sourcePoint" />
            <mxPoint x="-60" y="40" as="targetPoint" />
          </mxGeometry>
        </mxCell>
        <mxCell id="71enjnyxu9cjQM3RV5yC-5" value="" style="endArrow=classic;html=1;rounded=0;dashed=1;" parent="1" edge="1">
          <mxGeometry width="50" height="50" relative="1" as="geometry">
            <mxPoint x="-210" y="2040" as="sourcePoint" />
            <mxPoint x="-290" y="2030" as="targetPoint" />
          </mxGeometry>
        </mxCell>
        <mxCell id="71enjnyxu9cjQM3RV5yC-7" value="在创建一个 group 之前，这两者必须存在其一，否则创建会失败" style="text;html=1;strokeColor=none;fillColor=none;align=center;verticalAlign=middle;whiteSpace=wrap;rounded=0;" parent="1" vertex="1">
          <mxGeometry x="-467" y="2025" width="180" height="20" as="geometry" />
        </mxCell>
        <mxCell id="71enjnyxu9cjQM3RV5yC-8" value="struct attribute {" style="swimlane;fontStyle=0;childLayout=stackLayout;horizontal=1;startSize=30;horizontalStack=0;resizeParent=1;resizeParentMax=0;resizeLast=0;collapsible=1;marginBottom=0;whiteSpace=wrap;html=1;fillColor=#1ba1e2;strokeColor=#006EAF;fontColor=#ffffff;" parent="1" vertex="1">
          <mxGeometry x="10" y="1947.5" width="110" height="50" as="geometry" />
        </mxCell>
        <mxCell id="71enjnyxu9cjQM3RV5yC-9" value="..." style="rounded=0;whiteSpace=wrap;html=1;" parent="71enjnyxu9cjQM3RV5yC-8" vertex="1">
          <mxGeometry y="30" width="110" height="20" as="geometry" />
        </mxCell>
        <mxCell id="71enjnyxu9cjQM3RV5yC-10" value="struct bin_attribute {" style="swimlane;fontStyle=0;childLayout=stackLayout;horizontal=1;startSize=30;horizontalStack=0;resizeParent=1;resizeParentMax=0;resizeLast=0;collapsible=1;marginBottom=0;whiteSpace=wrap;html=1;fillColor=#d80073;strokeColor=#A50040;fontColor=#ffffff;" parent="1" vertex="1">
          <mxGeometry x="10" y="2097.5" width="110" height="50" as="geometry" />
        </mxCell>
        <mxCell id="71enjnyxu9cjQM3RV5yC-11" value="..." style="rounded=0;whiteSpace=wrap;html=1;" parent="71enjnyxu9cjQM3RV5yC-10" vertex="1">
          <mxGeometry y="30" width="110" height="20" as="geometry" />
        </mxCell>
        <mxCell id="71enjnyxu9cjQM3RV5yC-19" value="struct attribute {" style="swimlane;fontStyle=0;childLayout=stackLayout;horizontal=1;startSize=30;horizontalStack=0;resizeParent=1;resizeParentMax=0;resizeLast=0;collapsible=1;marginBottom=0;whiteSpace=wrap;html=1;fillColor=#1ba1e2;strokeColor=#006EAF;fontColor=#ffffff;" parent="1" vertex="1">
          <mxGeometry x="150" y="1947.5" width="110" height="50" as="geometry" />
        </mxCell>
        <mxCell id="71enjnyxu9cjQM3RV5yC-20" value="..." style="rounded=0;whiteSpace=wrap;html=1;" parent="71enjnyxu9cjQM3RV5yC-19" vertex="1">
          <mxGeometry y="30" width="110" height="20" as="geometry" />
        </mxCell>
        <mxCell id="71enjnyxu9cjQM3RV5yC-21" value="struct attribute {" style="swimlane;fontStyle=0;childLayout=stackLayout;horizontal=1;startSize=30;horizontalStack=0;resizeParent=1;resizeParentMax=0;resizeLast=0;collapsible=1;marginBottom=0;whiteSpace=wrap;html=1;fillColor=#1ba1e2;strokeColor=#006EAF;fontColor=#ffffff;" parent="1" vertex="1">
          <mxGeometry x="300" y="1947.5" width="110" height="50" as="geometry" />
        </mxCell>
        <mxCell id="mPgxJHWwVfeoTGfvAqUA-2" value="" style="endArrow=classic;html=1;rounded=0;dashed=1;" parent="71enjnyxu9cjQM3RV5yC-21" edge="1">
          <mxGeometry width="50" height="50" relative="1" as="geometry">
            <mxPoint x="90" y="82.5" as="sourcePoint" />
            <mxPoint x="130" y="102.5" as="targetPoint" />
          </mxGeometry>
        </mxCell>
        <mxCell id="71enjnyxu9cjQM3RV5yC-22" value="..." style="rounded=0;whiteSpace=wrap;html=1;" parent="71enjnyxu9cjQM3RV5yC-21" vertex="1">
          <mxGeometry y="30" width="110" height="20" as="geometry" />
        </mxCell>
        <mxCell id="71enjnyxu9cjQM3RV5yC-23" value="struct bin_attribute {" style="swimlane;fontStyle=0;childLayout=stackLayout;horizontal=1;startSize=30;horizontalStack=0;resizeParent=1;resizeParentMax=0;resizeLast=0;collapsible=1;marginBottom=0;whiteSpace=wrap;html=1;fillColor=#d80073;strokeColor=#A50040;fontColor=#ffffff;" parent="1" vertex="1">
          <mxGeometry x="140" y="2097.5" width="110" height="50" as="geometry" />
        </mxCell>
        <mxCell id="71enjnyxu9cjQM3RV5yC-24" value="..." style="rounded=0;whiteSpace=wrap;html=1;" parent="71enjnyxu9cjQM3RV5yC-23" vertex="1">
          <mxGeometry y="30" width="110" height="20" as="geometry" />
        </mxCell>
        <mxCell id="71enjnyxu9cjQM3RV5yC-25" value="struct bin_attribute {" style="swimlane;fontStyle=0;childLayout=stackLayout;horizontal=1;startSize=30;horizontalStack=0;resizeParent=1;resizeParentMax=0;resizeLast=0;collapsible=1;marginBottom=0;whiteSpace=wrap;html=1;fillColor=#d80073;strokeColor=#A50040;fontColor=#ffffff;" parent="1" vertex="1">
          <mxGeometry x="277.5" y="2097.5" width="110" height="50" as="geometry" />
        </mxCell>
        <mxCell id="71enjnyxu9cjQM3RV5yC-26" value="..." style="rounded=0;whiteSpace=wrap;html=1;" parent="71enjnyxu9cjQM3RV5yC-25" vertex="1">
          <mxGeometry y="30" width="110" height="20" as="geometry" />
        </mxCell>
        <mxCell id="71enjnyxu9cjQM3RV5yC-42" value="" style="edgeStyle=orthogonalEdgeStyle;rounded=0;orthogonalLoop=1;jettySize=auto;html=1;entryX=0;entryY=0.25;entryDx=0;entryDy=0;" parent="1" source="71enjnyxu9cjQM3RV5yC-28" target="71enjnyxu9cjQM3RV5yC-8" edge="1">
          <mxGeometry relative="1" as="geometry">
            <Array as="points">
              <mxPoint x="85" y="2010" />
              <mxPoint x="-10" y="2010" />
              <mxPoint x="-10" y="1960" />
            </Array>
          </mxGeometry>
        </mxCell>
        <mxCell id="71enjnyxu9cjQM3RV5yC-28" value="xxx" style="rounded=0;whiteSpace=wrap;html=1;fillColor=#1ba1e2;fontColor=#ffffff;strokeColor=#006EAF;" parent="1" vertex="1">
          <mxGeometry x="40" y="2025" width="90" height="15" as="geometry" />
        </mxCell>
        <mxCell id="71enjnyxu9cjQM3RV5yC-43" value="" style="edgeStyle=orthogonalEdgeStyle;rounded=0;orthogonalLoop=1;jettySize=auto;html=1;entryX=0;entryY=0.25;entryDx=0;entryDy=0;" parent="1" source="71enjnyxu9cjQM3RV5yC-34" target="71enjnyxu9cjQM3RV5yC-19" edge="1">
          <mxGeometry relative="1" as="geometry">
            <Array as="points">
              <mxPoint x="175" y="2010" />
              <mxPoint x="130" y="2010" />
              <mxPoint x="130" y="1960" />
            </Array>
          </mxGeometry>
        </mxCell>
        <mxCell id="71enjnyxu9cjQM3RV5yC-34" value="xxx" style="rounded=0;whiteSpace=wrap;html=1;fillColor=#1ba1e2;fontColor=#ffffff;strokeColor=#006EAF;" parent="1" vertex="1">
          <mxGeometry x="130" y="2025" width="90" height="15" as="geometry" />
        </mxCell>
        <mxCell id="71enjnyxu9cjQM3RV5yC-44" value="" style="edgeStyle=orthogonalEdgeStyle;rounded=0;orthogonalLoop=1;jettySize=auto;html=1;entryX=0;entryY=0.25;entryDx=0;entryDy=0;" parent="1" source="71enjnyxu9cjQM3RV5yC-35" target="71enjnyxu9cjQM3RV5yC-21" edge="1">
          <mxGeometry relative="1" as="geometry">
            <Array as="points">
              <mxPoint x="265" y="2010" />
              <mxPoint x="280" y="2010" />
              <mxPoint x="280" y="1960" />
            </Array>
          </mxGeometry>
        </mxCell>
        <mxCell id="71enjnyxu9cjQM3RV5yC-35" value="xxx" style="rounded=0;whiteSpace=wrap;html=1;fillColor=#1ba1e2;fontColor=#ffffff;strokeColor=#006EAF;" parent="1" vertex="1">
          <mxGeometry x="220" y="2025" width="90" height="15" as="geometry" />
        </mxCell>
        <mxCell id="71enjnyxu9cjQM3RV5yC-45" value="" style="edgeStyle=orthogonalEdgeStyle;rounded=0;orthogonalLoop=1;jettySize=auto;html=1;entryX=0;entryY=0.25;entryDx=0;entryDy=0;" parent="1" source="71enjnyxu9cjQM3RV5yC-36" target="71enjnyxu9cjQM3RV5yC-10" edge="1">
          <mxGeometry relative="1" as="geometry">
            <Array as="points">
              <mxPoint x="85" y="2080" />
              <mxPoint x="-10" y="2080" />
              <mxPoint x="-10" y="2110" />
            </Array>
          </mxGeometry>
        </mxCell>
        <mxCell id="71enjnyxu9cjQM3RV5yC-36" value="xxx" style="rounded=0;whiteSpace=wrap;html=1;fillColor=#d80073;fontColor=#ffffff;strokeColor=#A50040;" parent="1" vertex="1">
          <mxGeometry x="40" y="2060" width="90" height="15" as="geometry" />
        </mxCell>
        <mxCell id="71enjnyxu9cjQM3RV5yC-37" value="xxx" style="rounded=0;whiteSpace=wrap;html=1;fillColor=#d80073;fontColor=#ffffff;strokeColor=#A50040;" parent="1" vertex="1">
          <mxGeometry x="130" y="2060" width="90" height="15" as="geometry" />
        </mxCell>
        <mxCell id="71enjnyxu9cjQM3RV5yC-47" value="" style="edgeStyle=orthogonalEdgeStyle;rounded=0;orthogonalLoop=1;jettySize=auto;html=1;entryX=0.001;entryY=0.349;entryDx=0;entryDy=0;entryPerimeter=0;" parent="1" source="71enjnyxu9cjQM3RV5yC-38" target="71enjnyxu9cjQM3RV5yC-25" edge="1">
          <mxGeometry relative="1" as="geometry">
            <Array as="points">
              <mxPoint x="260" y="2115" />
            </Array>
          </mxGeometry>
        </mxCell>
        <mxCell id="71enjnyxu9cjQM3RV5yC-38" value="xxx" style="rounded=0;whiteSpace=wrap;html=1;fillColor=#d80073;fontColor=#ffffff;strokeColor=#A50040;" parent="1" vertex="1">
          <mxGeometry x="220" y="2060" width="90" height="15" as="geometry" />
        </mxCell>
        <mxCell id="71enjnyxu9cjQM3RV5yC-39" value="0" style="text;html=1;strokeColor=none;fillColor=none;align=center;verticalAlign=middle;whiteSpace=wrap;rounded=0;" parent="1" vertex="1">
          <mxGeometry x="70" y="2042.5" width="25" height="15" as="geometry" />
        </mxCell>
        <mxCell id="71enjnyxu9cjQM3RV5yC-46" value="" style="edgeStyle=orthogonalEdgeStyle;rounded=0;orthogonalLoop=1;jettySize=auto;html=1;exitX=0.5;exitY=1;exitDx=0;exitDy=0;entryX=0;entryY=0.25;entryDx=0;entryDy=0;" parent="1" source="71enjnyxu9cjQM3RV5yC-37" target="71enjnyxu9cjQM3RV5yC-23" edge="1">
          <mxGeometry relative="1" as="geometry">
            <mxPoint x="173" y="2080" as="sourcePoint" />
            <Array as="points">
              <mxPoint x="175" y="2090" />
              <mxPoint x="130" y="2090" />
              <mxPoint x="130" y="2110" />
            </Array>
          </mxGeometry>
        </mxCell>
        <mxCell id="71enjnyxu9cjQM3RV5yC-40" value="1" style="text;html=1;strokeColor=none;fillColor=none;align=center;verticalAlign=middle;whiteSpace=wrap;rounded=0;" parent="1" vertex="1">
          <mxGeometry x="160" y="2042.5" width="25" height="15" as="geometry" />
        </mxCell>
        <mxCell id="71enjnyxu9cjQM3RV5yC-41" value="2" style="text;html=1;strokeColor=none;fillColor=none;align=center;verticalAlign=middle;whiteSpace=wrap;rounded=0;" parent="1" vertex="1">
          <mxGeometry x="252.5" y="2042.5" width="25" height="15" as="geometry" />
        </mxCell>
        <mxCell id="71enjnyxu9cjQM3RV5yC-49" value="..." style="rounded=0;whiteSpace=wrap;html=1;fillColor=#1ba1e2;fontColor=#ffffff;strokeColor=#006EAF;" parent="1" vertex="1">
          <mxGeometry x="310" y="2025" width="90" height="15" as="geometry" />
        </mxCell>
        <mxCell id="71enjnyxu9cjQM3RV5yC-50" value="..." style="rounded=0;whiteSpace=wrap;html=1;fillColor=#d80073;fontColor=#ffffff;strokeColor=#A50040;" parent="1" vertex="1">
          <mxGeometry x="310" y="2060" width="90" height="15" as="geometry" />
        </mxCell>
        <mxCell id="71enjnyxu9cjQM3RV5yC-51" value="" style="endArrow=classic;html=1;rounded=0;exitX=1;exitY=0.5;exitDx=0;exitDy=0;entryX=0;entryY=0.5;entryDx=0;entryDy=0;" parent="1" source="71enjnyxu9cjQM3RV5yC-3" target="71enjnyxu9cjQM3RV5yC-28" edge="1">
          <mxGeometry width="50" height="50" relative="1" as="geometry">
            <mxPoint x="-10" y="2080" as="sourcePoint" />
            <mxPoint x="40" y="2030" as="targetPoint" />
            <Array as="points">
              <mxPoint y="2040" />
              <mxPoint y="2033" />
            </Array>
          </mxGeometry>
        </mxCell>
        <mxCell id="71enjnyxu9cjQM3RV5yC-52" value="" style="edgeStyle=orthogonalEdgeStyle;rounded=0;orthogonalLoop=1;jettySize=auto;html=1;entryX=0;entryY=0.5;entryDx=0;entryDy=0;" parent="1" source="71enjnyxu9cjQM3RV5yC-4" target="71enjnyxu9cjQM3RV5yC-36" edge="1">
          <mxGeometry relative="1" as="geometry" />
        </mxCell>
        <mxCell id="mPgxJHWwVfeoTGfvAqUA-3" value="" style="endArrow=classic;html=1;rounded=0;dashed=1;" parent="1" edge="1">
          <mxGeometry width="50" height="50" relative="1" as="geometry">
            <mxPoint x="387.5" y="2070" as="sourcePoint" />
            <mxPoint x="430" y="2070" as="targetPoint" />
          </mxGeometry>
        </mxCell>
        <mxCell id="mPgxJHWwVfeoTGfvAqUA-4" value="最后一个指针指向 NULL" style="text;html=1;strokeColor=none;fillColor=none;align=center;verticalAlign=middle;whiteSpace=wrap;rounded=0;" parent="1" vertex="1">
          <mxGeometry x="430" y="2050" width="140" height="20" as="geometry" />
        </mxCell>
        <mxCell id="mPgxJHWwVfeoTGfvAqUA-5" value="" style="endArrow=classic;html=1;rounded=0;dashed=1;strokeColor=#FF0000;" parent="1" edge="1">
          <mxGeometry width="50" height="50" relative="1" as="geometry">
            <mxPoint x="-450" y="2290" as="sourcePoint" />
            <mxPoint x="-260" y="2400" as="targetPoint" />
          </mxGeometry>
        </mxCell>
        <mxCell id="mPgxJHWwVfeoTGfvAqUA-6" value="" style="endArrow=classic;html=1;rounded=0;dashed=1;strokeColor=#FF0000;" parent="1" edge="1">
          <mxGeometry width="50" height="50" relative="1" as="geometry">
            <mxPoint x="-430" y="2400" as="sourcePoint" />
            <mxPoint x="-260" y="2410" as="targetPoint" />
          </mxGeometry>
        </mxCell>
        <mxCell id="mPgxJHWwVfeoTGfvAqUA-7" value="" style="endArrow=classic;html=1;rounded=0;dashed=1;strokeColor=#FF0000;" parent="1" edge="1">
          <mxGeometry width="50" height="50" relative="1" as="geometry">
            <mxPoint x="-430" y="2490" as="sourcePoint" />
            <mxPoint x="-260" y="2420" as="targetPoint" />
          </mxGeometry>
        </mxCell>
        <mxCell id="mPgxJHWwVfeoTGfvAqUA-8" value="这些类似的结构体要保证 struct attribute attr 或者struct bin_attribute battr&amp;nbsp;&lt;br&gt;成员在第一位" style="text;html=1;strokeColor=none;fillColor=none;align=left;verticalAlign=middle;whiteSpace=wrap;rounded=0;" parent="1" vertex="1">
          <mxGeometry x="-260" y="2390" width="140" height="60" as="geometry" />
        </mxCell>
        <mxCell id="mPgxJHWwVfeoTGfvAqUA-10" value="" style="endArrow=classic;html=1;rounded=0;strokeColor=#FF0000;dashed=1;" parent="1" edge="1">
          <mxGeometry width="50" height="50" relative="1" as="geometry">
            <mxPoint x="-725" y="1960" as="sourcePoint" />
            <mxPoint x="-630" y="1960" as="targetPoint" />
          </mxGeometry>
        </mxCell>
        <mxCell id="mPgxJHWwVfeoTGfvAqUA-11" value="" style="endArrow=classic;html=1;rounded=0;strokeColor=#FF0000;dashed=1;" parent="1" edge="1">
          <mxGeometry width="50" height="50" relative="1" as="geometry">
            <mxPoint x="-720" y="1990" as="sourcePoint" />
            <mxPoint x="-630" y="1970" as="targetPoint" />
          </mxGeometry>
        </mxCell>
        <mxCell id="mPgxJHWwVfeoTGfvAqUA-12" value="虽然kernfs_node 的私有数据是这两个，但是只要保证其他包含这两个结构的结构体将他们放在第一个成员的位置，能能很方便的获取到其他结构体的指针，比如device_attribute 和driver_attribute 结构体等" style="text;html=1;strokeColor=none;fillColor=none;align=left;verticalAlign=middle;whiteSpace=wrap;rounded=0;" parent="1" vertex="1">
          <mxGeometry x="-627.5" y="1930" width="375" height="55" as="geometry" />
        </mxCell>
        <mxCell id="mPgxJHWwVfeoTGfvAqUA-15" value="默认要创建的属性文件，在创建该kobject目录时就会同步创建这些文件，这对于多个 kobject 想要创建相同的属性时很重要，只要拥有同一个 kobj_type即可，能根据此创建，不需要冗余的代码（该成员指向的指针数组要保证最后一个指针指向NULL），这些 attribute 文件将在 kobject_add() 函数调用时创建。" style="text;html=1;strokeColor=none;fillColor=none;align=left;verticalAlign=middle;whiteSpace=wrap;rounded=0;" parent="1" vertex="1">
          <mxGeometry x="-1170" y="2290" width="250" height="110" as="geometry" />
        </mxCell>
        <mxCell id="mPgxJHWwVfeoTGfvAqUA-16" value="struct kobject {" style="swimlane;fontStyle=0;childLayout=stackLayout;horizontal=1;startSize=30;horizontalStack=0;resizeParent=1;resizeParentMax=0;resizeLast=0;collapsible=1;marginBottom=0;whiteSpace=wrap;html=1;fillColor=#0050ef;strokeColor=#001DBC;fontColor=#ffffff;" parent="1" vertex="1">
          <mxGeometry x="-1680" y="2490" width="140" height="150" as="geometry" />
        </mxCell>
        <mxCell id="mPgxJHWwVfeoTGfvAqUA-17" value="struct list_head&#x9;entry;" style="rounded=0;whiteSpace=wrap;html=1;" parent="mPgxJHWwVfeoTGfvAqUA-16" vertex="1">
          <mxGeometry y="30" width="140" height="30" as="geometry" />
        </mxCell>
        <mxCell id="mPgxJHWwVfeoTGfvAqUA-18" value="struct kset&#x9;&#x9;*kset;" style="rounded=0;whiteSpace=wrap;html=1;" parent="mPgxJHWwVfeoTGfvAqUA-16" vertex="1">
          <mxGeometry y="60" width="140" height="30" as="geometry" />
        </mxCell>
        <mxCell id="mPgxJHWwVfeoTGfvAqUA-19" value="struct kobj_type&#x9;*ktype;" style="rounded=0;whiteSpace=wrap;html=1;" parent="mPgxJHWwVfeoTGfvAqUA-16" vertex="1">
          <mxGeometry y="90" width="140" height="30" as="geometry" />
        </mxCell>
        <mxCell id="mPgxJHWwVfeoTGfvAqUA-20" value="struct kobject *parent;" style="rounded=0;whiteSpace=wrap;html=1;" parent="mPgxJHWwVfeoTGfvAqUA-16" vertex="1">
          <mxGeometry y="120" width="140" height="30" as="geometry" />
        </mxCell>
        <mxCell id="mPgxJHWwVfeoTGfvAqUA-21" value="" style="endArrow=classic;html=1;rounded=0;entryX=0;entryY=0.5;entryDx=0;entryDy=0;exitX=1;exitY=0.5;exitDx=0;exitDy=0;" parent="1" edge="1">
          <mxGeometry width="50" height="50" relative="1" as="geometry">
            <mxPoint x="-1540" y="2564.6" as="sourcePoint" />
            <mxPoint x="-1490" y="2564.6" as="targetPoint" />
          </mxGeometry>
        </mxCell>
        <mxCell id="mPgxJHWwVfeoTGfvAqUA-22" value="NULL" style="text;html=1;strokeColor=none;fillColor=none;align=center;verticalAlign=middle;whiteSpace=wrap;rounded=0;" parent="1" vertex="1">
          <mxGeometry x="-1500" y="2550" width="60" height="30" as="geometry" />
        </mxCell>
        <mxCell id="mPgxJHWwVfeoTGfvAqUA-23" value="" style="endArrow=classic;html=1;rounded=0;entryX=0;entryY=0.5;entryDx=0;entryDy=0;exitX=1;exitY=0.5;exitDx=0;exitDy=0;" parent="1" edge="1">
          <mxGeometry width="50" height="50" relative="1" as="geometry">
            <mxPoint x="-1540" y="2534.6" as="sourcePoint" />
            <mxPoint x="-1490" y="2534.6" as="targetPoint" />
          </mxGeometry>
        </mxCell>
        <mxCell id="mPgxJHWwVfeoTGfvAqUA-24" value="NULL" style="text;html=1;strokeColor=none;fillColor=none;align=center;verticalAlign=middle;whiteSpace=wrap;rounded=0;" parent="1" vertex="1">
          <mxGeometry x="-1500" y="2520" width="60" height="30" as="geometry" />
        </mxCell>
        <mxCell id="mPgxJHWwVfeoTGfvAqUA-25" value="kobject 若有 kset，则 entry 节点挂于该 kset 的 list 链表节点之下，若没有，entry 和 kset 成员均指向 NULL" style="text;html=1;strokeColor=none;fillColor=none;align=left;verticalAlign=middle;whiteSpace=wrap;rounded=0;" parent="1" vertex="1">
          <mxGeometry x="-1730" y="2440" width="300" height="30" as="geometry" />
        </mxCell>
      </root>
    </mxGraphModel>
  </diagram>
</mxfile>
